<svg width="216" height="49" viewBox="0 0 216 49" fill="none" xmlns="http://www.w3.org/2000/svg">
<path fill-rule="evenodd" clip-rule="evenodd" d="M14.7595 7.29853L18.4563 0.343506L22.1532 7.29853H14.7595ZM22.1532 7.29854L22.1531 7.29857L25.85 14.2536H18.4563H18.4563L18.4563 14.2535L14.7595 7.29854H22.1531H22.1532ZM25.85 14.2536L22.1531 21.2086L18.4563 14.2536H25.85ZM25.854 14.2612L29.5468 21.2086H29.519L33.2158 28.1636H25.85L22.1532 21.2086L25.85 14.2536L25.854 14.2612ZM25.85 28.1636L29.519 35.1186H36.9127L33.2159 28.1636H33.2158H25.85ZM11.0627 28.1636L14.7595 21.2086L11.0627 14.2536L7.39367 21.2086L11.0627 28.1636ZM22.1532 35.1186L18.4563 28.1636L14.7595 35.1186L14.7595 35.1186L18.4563 28.1636H11.0627H11.0626H3.69682L0 35.1186H7.39367H14.7594H14.7595L11.0626 42.0736H18.4563L22.1532 35.1186ZM3.69679 28.1636L7.39361 21.2086L11.0626 28.1636H3.69679ZM14.7595 49.0001L11.0626 42.0737H18.4563L14.7595 49.0001ZM33.2159 14.2536L36.9127 7.29854H29.519L27.9903 10.1893L30.1583 14.2536H33.2159ZM31.6871 17.1443L33.2158 14.2536H30.1583L31.6871 17.1443ZM29.519 7.29853L33.2159 0.343506H40.6095L36.9127 7.29853H29.519Z" fill="#011833"/>
<path d="M49.1983 21.6664H55.5913C55.897 21.6664 56.1194 21.7522 56.2584 21.8953C56.3696 22.0384 56.4529 22.2388 56.4529 22.4678V24.5857C56.4529 25.1582 56.175 25.4158 55.6469 25.4158H49.1983V32.9146C49.1983 33.4584 48.9481 33.716 48.42 33.716H45.6682C45.3625 33.716 45.1123 33.6588 44.9733 33.5443C44.8344 33.4298 44.751 33.2008 44.751 32.8287V14.3965C44.751 13.8527 45.0011 13.5951 45.4737 13.5951H56.6753C56.9533 13.5951 57.1478 13.6523 57.259 13.7954C57.3702 13.9099 57.398 14.0817 57.398 14.282L57.1478 16.629C57.12 16.9438 57.0089 17.1442 56.8143 17.23C56.6475 17.3159 56.3696 17.3731 56.036 17.3731H49.1983V21.6664Z" fill="#011833"/>
<path d="M64.0687 32.9147C64.0687 33.4585 63.8185 33.7161 63.346 33.7161H60.5942C60.3997 33.7161 60.2051 33.6588 60.0661 33.5157C59.9271 33.4012 59.8438 33.2009 59.8438 32.9147V14.1962C59.8438 13.9386 59.8993 13.7096 59.9827 13.5665C60.0661 13.4234 60.2607 13.3376 60.5108 13.2803L63.2626 12.9082C63.7907 12.8224 64.0409 13.0227 64.0409 13.5093V32.9147H64.0687Z" fill="#011833"/>
<path d="M79.6626 26.9613C79.6626 27.3048 79.5792 27.5338 79.4125 27.6482C79.2457 27.7627 78.9955 27.82 78.6342 27.82H70.7402C70.907 28.7359 71.3517 29.4514 72.0466 29.938C72.7415 30.4245 73.5198 30.6535 74.3814 30.6535C74.9929 30.6535 75.6044 30.5963 76.1604 30.4531C76.7441 30.3387 77.3 30.1383 77.8559 29.9093C78.0505 29.8235 78.245 29.7949 78.384 29.8235C78.523 29.8521 78.6342 30.0238 78.7176 30.2814L79.1623 32.1132C79.2457 32.3708 79.2179 32.5998 79.1345 32.7429C79.0511 32.886 78.8843 33.0005 78.6898 33.1149C77.9393 33.487 77.1054 33.7446 76.1882 33.8877C75.2709 34.0308 74.4092 34.1167 73.5754 34.1167C72.4357 34.1167 71.4351 33.945 70.5456 33.6015C69.6562 33.2581 68.8779 32.7715 68.2386 32.1132C67.5993 31.4835 67.1268 30.6821 66.7654 29.7662C66.4041 28.8503 66.2373 27.7913 66.2373 26.6465C66.2373 25.5303 66.4041 24.4999 66.7654 23.584C67.1268 22.6681 67.6271 21.8953 68.2664 21.237C68.9057 20.5787 69.684 20.0922 70.5734 19.7487C71.4629 19.4053 72.4635 19.2335 73.5476 19.2335C74.437 19.2335 75.2709 19.4053 76.0214 19.7201C76.7719 20.0349 77.3834 20.4929 77.9115 21.0939C78.6342 21.8667 79.0789 22.7253 79.3013 23.6699C79.4958 24.6144 79.607 25.6161 79.607 26.6179V26.9613H79.6626ZM75.5211 25.0437C75.5211 24.7288 75.4655 24.4426 75.3821 24.1278C75.2987 23.8416 75.1597 23.5554 74.9651 23.3264C74.7706 23.0974 74.5482 22.8971 74.2703 22.754C73.9923 22.6109 73.6865 22.525 73.3252 22.525C72.6025 22.525 72.0466 22.7826 71.6019 23.2692C71.1571 23.7557 70.8792 24.3568 70.7958 25.0151H75.5211V25.0437Z" fill="#011833"/>
<path d="M94.2554 26.9613C94.2554 27.3048 94.172 27.5338 94.0052 27.6482C93.8385 27.7627 93.5883 27.82 93.227 27.82H85.333C85.4998 28.7359 85.9445 29.4514 86.6394 29.938C87.3343 30.4245 88.1126 30.6535 88.9742 30.6535C89.5857 30.6535 90.1972 30.5963 90.7531 30.4531C91.3368 30.3387 91.8928 30.1383 92.4487 29.9093C92.6432 29.8235 92.8378 29.7949 92.9768 29.8235C93.1158 29.8521 93.227 30.0238 93.3103 30.2814L93.7551 32.1132C93.8385 32.3708 93.8107 32.5998 93.7273 32.7429C93.6439 32.886 93.4771 33.0005 93.2825 33.1149C92.5321 33.487 91.6982 33.7446 90.7809 33.8877C89.8637 34.0308 89.002 34.1167 88.1681 34.1167C87.0285 34.1167 86.0279 33.945 85.1384 33.6015C84.2489 33.2581 83.4707 32.7715 82.8314 32.1132C82.1921 31.4835 81.7195 30.6821 81.3582 29.7662C80.9969 28.8503 80.8301 27.7913 80.8301 26.6465C80.8301 25.5303 80.9969 24.4999 81.3582 23.584C81.7195 22.6681 82.2199 21.8953 82.8592 21.237C83.4985 20.5787 84.2767 20.0922 85.1662 19.7487C86.0557 19.4053 87.0563 19.2335 88.1403 19.2335C89.0298 19.2335 89.8637 19.4053 90.6142 19.7201C91.3646 20.0349 91.9761 20.4929 92.5043 21.0939C93.2269 21.8667 93.6717 22.7253 93.894 23.6699C94.0886 24.6144 94.1998 25.6161 94.1998 26.6179V26.9613H94.2554ZM90.1138 25.0437C90.1138 24.7288 90.0582 24.4426 89.9749 24.1278C89.8915 23.8416 89.7525 23.5554 89.5579 23.3264C89.3634 23.0974 89.141 22.8971 88.863 22.754C88.5851 22.6109 88.2793 22.525 87.918 22.525C87.1953 22.525 86.6394 22.7826 86.1946 23.2692C85.7499 23.7557 85.472 24.3568 85.3886 25.0151H90.1138V25.0437Z" fill="#011833"/>
<path d="M101.288 19.6057H104.318C104.512 19.6057 104.679 19.663 104.818 19.7488C104.929 19.8347 105.012 20.0064 105.012 20.2068V21.8954C105.012 22.0958 104.957 22.2675 104.818 22.382C104.707 22.4965 104.54 22.5537 104.318 22.5537H101.288V28.2208C101.288 28.9649 101.371 29.566 101.538 29.9953C101.705 30.4246 102.094 30.6536 102.705 30.6536C103.067 30.6536 103.373 30.625 103.65 30.5391C103.928 30.4819 104.206 30.396 104.484 30.2815C104.651 30.2243 104.818 30.1957 104.985 30.2243C105.151 30.2529 105.235 30.3674 105.29 30.5964L105.624 32.4568C105.652 32.6571 105.652 32.8575 105.596 32.9719C105.541 33.1151 105.402 33.2295 105.124 33.344C104.623 33.5444 104.095 33.7447 103.484 33.8592C102.872 34.0023 102.233 34.0596 101.594 34.0596C100.815 34.0596 100.093 33.9451 99.4811 33.7447C98.8696 33.5444 98.3693 33.2009 97.9801 32.743C97.7578 32.4854 97.5632 32.1992 97.452 31.8843C97.313 31.5981 97.2297 31.2547 97.1741 30.8826C97.1185 30.5105 97.0907 30.1098 97.0629 29.6519C97.0351 29.1939 97.0351 28.6787 97.0351 28.0777V22.5537H95.8955C95.5619 22.5537 95.3396 22.4965 95.2562 22.3534C95.1728 22.2389 95.1172 21.9813 95.1172 21.5806V20.3212C95.1172 20.1209 95.1728 19.9205 95.284 19.7774C95.3951 19.6343 95.5619 19.5485 95.7565 19.5485H97.0629V16.6863C97.0629 16.4287 97.1185 16.1997 97.2019 16.0566C97.2853 15.9135 97.4798 15.8277 97.73 15.7704L100.482 15.3983C101.01 15.3125 101.26 15.5128 101.26 15.9994V19.6057H101.288Z" fill="#011833"/>
<path d="M127.276 27.5053C127.276 28.5356 127.081 29.4801 126.72 30.2815C126.331 31.0829 125.831 31.7985 125.191 32.3423C124.552 32.9147 123.774 33.344 122.912 33.6303C122.05 33.9165 121.133 34.0596 120.188 34.0596C119.271 34.0596 118.27 33.9737 117.242 33.7734C116.185 33.6016 115.213 33.344 114.323 33.0006C114.073 32.9147 113.878 32.7716 113.823 32.6285C113.739 32.4854 113.767 32.2278 113.851 31.913L114.601 29.566C114.629 29.4229 114.712 29.2798 114.796 29.1653C114.879 29.0508 115.018 28.9936 115.213 28.9936C115.324 28.9936 115.491 29.0222 115.685 29.1081C116.38 29.3657 117.103 29.5946 117.881 29.7664C118.631 29.9381 119.382 30.0239 120.105 30.0239C120.41 30.0239 120.716 29.9953 121.022 29.9095C121.328 29.8236 121.606 29.7091 121.884 29.5374C122.134 29.3657 122.356 29.1653 122.523 28.9077C122.69 28.6501 122.773 28.3353 122.773 27.9918C122.773 27.4194 122.606 26.9901 122.245 26.7039C121.884 26.4176 121.494 26.16 121.05 25.9311L117.269 24.1279C116.213 23.6127 115.379 22.9258 114.74 22.0672C114.101 21.1799 113.795 20.1495 113.795 18.9188C113.795 18.0029 113.99 17.1729 114.407 16.4574C114.823 15.7418 115.352 15.1408 116.019 14.6542C116.686 14.1676 117.408 13.7956 118.242 13.5093C119.076 13.2231 119.882 13.1086 120.716 13.1086C121.717 13.1086 122.69 13.1945 123.579 13.3949C124.469 13.5952 125.386 13.8814 126.247 14.2535C126.525 14.3966 126.72 14.5397 126.776 14.6828C126.859 14.8259 126.831 15.0549 126.748 15.3411L125.886 17.6022C125.803 17.8598 125.664 18.0315 125.497 18.0888C125.33 18.146 125.108 18.1174 124.83 17.9743C123.385 17.3446 122.106 17.0584 120.994 17.0584C120.716 17.0584 120.438 17.087 120.16 17.1443C119.882 17.2015 119.632 17.316 119.382 17.4591C119.16 17.6022 118.965 17.7739 118.826 18.0029C118.687 18.2319 118.604 18.5181 118.604 18.8616C118.604 19.0905 118.659 19.3195 118.798 19.4912C118.909 19.6916 119.076 19.8633 119.271 20.0064C119.465 20.1495 119.66 20.2926 119.882 20.4071C120.105 20.5216 120.299 20.6075 120.466 20.6933L123.718 22.2103C124.83 22.7255 125.719 23.4124 126.386 24.2424C126.942 25.1297 127.276 26.1887 127.276 27.5053Z" fill="#011833"/>
<path d="M143.148 26.6752C143.148 27.7342 142.981 28.736 142.675 29.6232C142.37 30.5391 141.897 31.3119 141.286 31.9702C140.674 32.6285 139.924 33.1437 139.034 33.5158C138.145 33.8878 137.116 34.0882 135.977 34.0882C134.782 34.0882 133.753 33.8878 132.891 33.5158C132.002 33.1437 131.279 32.6285 130.696 31.9416C130.112 31.2547 129.695 30.4819 129.417 29.566C129.139 28.6501 129 27.6484 129 26.5894C129 25.5304 129.167 24.5286 129.473 23.6413C129.778 22.7255 130.251 21.9527 130.862 21.2944C131.474 20.6361 132.224 20.1209 133.114 19.7488C134.003 19.3767 135.032 19.1764 136.171 19.1764C137.366 19.1764 138.395 19.3767 139.257 19.7488C140.146 20.1209 140.869 20.6361 141.452 21.323C142.036 21.9813 142.453 22.7827 142.731 23.6986C143.009 24.5859 143.148 25.5876 143.148 26.6752ZM138.784 26.6466C138.784 26.1028 138.728 25.5876 138.645 25.101C138.562 24.6145 138.423 24.1852 138.2 23.8131C138.006 23.441 137.728 23.1548 137.394 22.9258C137.061 22.6968 136.616 22.5823 136.088 22.5823C135.56 22.5823 135.115 22.6968 134.781 22.8972C134.42 23.0975 134.142 23.4124 133.948 23.7558C133.725 24.1279 133.586 24.5572 133.475 25.0438C133.392 25.5304 133.336 26.0169 133.336 26.5607C133.336 27.1045 133.392 27.6197 133.475 28.1063C133.558 28.5929 133.697 29.0222 133.92 29.4229C134.114 29.795 134.392 30.1098 134.726 30.3101C135.059 30.5391 135.504 30.6536 136.032 30.6536C136.56 30.6536 137.005 30.5391 137.339 30.3101C137.672 30.0812 137.978 29.795 138.173 29.4229C138.395 29.0508 138.534 28.6215 138.645 28.1349C138.728 27.677 138.784 27.1618 138.784 26.6466Z" fill="#011833"/>
<path d="M149.624 32.9147C149.624 33.4585 149.374 33.7161 148.901 33.7161H146.177C145.983 33.7161 145.788 33.6588 145.649 33.5157C145.51 33.4012 145.427 33.2009 145.427 32.9147V14.1962C145.427 13.9386 145.482 13.7096 145.566 13.5665C145.649 13.4234 145.844 13.3376 146.094 13.2803L148.846 12.9082C149.374 12.8224 149.624 13.0227 149.624 13.5093V32.9147Z" fill="#011833"/>
<path d="M165.607 32.7715C165.607 33.1436 165.551 33.4012 165.412 33.5157C165.301 33.6588 165.051 33.716 164.717 33.716H162.438C162.243 33.716 162.049 33.6588 161.91 33.5729C161.771 33.4871 161.687 33.344 161.66 33.115L161.604 32.4853C160.298 33.5443 158.797 34.0881 157.101 34.0881C155.572 34.0881 154.433 33.6302 153.71 32.6857C152.987 31.7412 152.626 30.4818 152.626 28.9363V20.3498C152.626 20.0636 152.709 19.8632 152.876 19.7488C153.043 19.6343 153.237 19.577 153.515 19.577H156.045C156.295 19.577 156.517 19.6343 156.656 19.7201C156.795 19.806 156.879 20.0063 156.879 20.3212V28.1349C156.879 28.7359 156.99 29.2225 157.212 29.5945C157.435 29.9666 157.852 30.167 158.491 30.167C158.963 30.167 159.464 30.0525 159.992 29.8521C160.52 29.6518 160.965 29.3656 161.382 29.0221V20.3498C161.382 20.0636 161.465 19.8632 161.632 19.7488C161.799 19.6343 161.993 19.577 162.271 19.577H164.8C165.051 19.577 165.273 19.6343 165.412 19.7201C165.551 19.806 165.634 20.0063 165.634 20.3212V32.7715H165.607Z" fill="#011833"/>
<path d="M173.639 19.6057H176.669C176.864 19.6057 177.03 19.663 177.169 19.7488C177.281 19.8347 177.364 20.0064 177.364 20.2068V21.8954C177.364 22.0958 177.308 22.2675 177.169 22.382C177.058 22.4965 176.891 22.5537 176.669 22.5537H173.639V28.2208C173.639 28.9649 173.723 29.566 173.89 29.9953C174.056 30.4246 174.445 30.6536 175.057 30.6536C175.418 30.6536 175.724 30.625 176.002 30.5391C176.28 30.4819 176.558 30.396 176.836 30.2815C177.003 30.2243 177.169 30.1957 177.336 30.2243C177.503 30.2529 177.586 30.3674 177.642 30.5964L177.976 32.4568C178.003 32.6571 178.003 32.8575 177.948 32.9719C177.892 33.1151 177.753 33.2295 177.475 33.344C176.975 33.5444 176.447 33.7447 175.835 33.8592C175.224 34.0023 174.584 34.0596 173.945 34.0596C173.167 34.0596 172.444 33.9451 171.833 33.7447C171.221 33.5444 170.721 33.2009 170.332 32.743C170.109 32.4854 169.915 32.1992 169.804 31.8843C169.665 31.5981 169.581 31.2547 169.526 30.8826C169.47 30.5105 169.442 30.1098 169.414 29.6519C169.387 29.1939 169.387 28.6787 169.387 28.0777V22.5537H168.247C167.913 22.5537 167.691 22.4965 167.608 22.3534C167.524 22.2389 167.469 21.9813 167.469 21.5806V20.3212C167.469 20.1209 167.524 19.9205 167.636 19.7774C167.747 19.6343 167.913 19.5485 168.108 19.5485H169.414V16.6863C169.414 16.4287 169.47 16.1997 169.553 16.0566C169.637 15.9135 169.831 15.8277 170.082 15.7704L172.833 15.3983C173.361 15.3125 173.612 15.5128 173.612 15.9994V19.6057H173.639Z" fill="#011833"/>
<path d="M184.369 15.7132C184.369 16.0566 184.313 16.3715 184.174 16.6291C184.035 16.8867 183.868 17.1443 183.646 17.316C183.424 17.5163 183.173 17.6595 182.923 17.7453C182.645 17.8312 182.395 17.8884 182.117 17.8884C181.839 17.8884 181.589 17.8312 181.311 17.7453C181.033 17.6595 180.783 17.5163 180.588 17.316C180.366 17.1443 180.199 16.9153 180.06 16.6291C179.921 16.3715 179.838 16.0566 179.838 15.7132C179.838 14.9977 180.06 14.4538 180.533 14.0531C181.005 13.6524 181.533 13.4807 182.117 13.4807C182.673 13.4807 183.201 13.6811 183.674 14.0531C184.118 14.4825 184.369 15.0263 184.369 15.7132ZM184.257 32.8861C184.257 33.4585 183.979 33.7161 183.451 33.7161H180.922C180.616 33.7161 180.394 33.6589 180.255 33.5444C180.116 33.4299 180.032 33.2009 180.032 32.8861V20.3499C180.032 20.0637 180.116 19.8633 180.283 19.7488C180.449 19.6343 180.644 19.5771 180.922 19.5771H183.451C183.701 19.5771 183.924 19.6343 184.063 19.7202C184.202 19.8061 184.285 20.0064 184.285 20.3213V32.8861H184.257Z" fill="#011833"/>
<path d="M200.795 26.6752C200.795 27.7342 200.629 28.736 200.323 29.6232C200.017 30.5391 199.545 31.3119 198.933 31.9702C198.322 32.6285 197.571 33.1437 196.682 33.5158C195.792 33.8878 194.764 34.0882 193.624 34.0882C192.429 34.0882 191.401 33.8878 190.539 33.5158C189.649 33.1437 188.927 32.6285 188.343 31.9416C187.759 31.2547 187.342 30.4819 187.064 29.566C186.786 28.6501 186.647 27.6484 186.647 26.5894C186.647 25.5304 186.814 24.5286 187.12 23.6413C187.426 22.7255 187.898 21.9527 188.51 21.2944C189.121 20.6361 189.872 20.1209 190.761 19.7488C191.651 19.3767 192.679 19.1764 193.819 19.1764C195.014 19.1764 196.042 19.3767 196.904 19.7488C197.794 20.1209 198.516 20.6361 199.1 21.323C199.684 21.9813 200.101 22.7827 200.379 23.6986C200.657 24.5859 200.795 25.5876 200.795 26.6752ZM196.432 26.6466C196.432 26.1028 196.376 25.5876 196.293 25.101C196.209 24.6145 196.07 24.1852 195.848 23.8131C195.653 23.441 195.375 23.1548 195.042 22.9258C194.708 22.6968 194.263 22.5823 193.735 22.5823C193.207 22.5823 192.763 22.6968 192.429 22.8972C192.068 23.0975 191.79 23.4124 191.595 23.7558C191.373 24.1279 191.234 24.5572 191.123 25.0438C191.039 25.5304 190.984 26.0169 190.984 26.5607C190.984 27.1045 191.039 27.6197 191.123 28.1063C191.206 28.5929 191.345 29.0222 191.567 29.4229C191.762 29.795 192.04 30.1098 192.373 30.3101C192.707 30.5391 193.152 30.6536 193.68 30.6536C194.208 30.6536 194.653 30.5391 194.986 30.3101C195.32 30.0812 195.625 29.795 195.82 29.4229C196.042 29.0508 196.181 28.6215 196.293 28.1349C196.376 27.677 196.432 27.1618 196.432 26.6466Z" fill="#011833"/>
<path d="M207.272 32.886C207.272 33.4584 207.022 33.716 206.494 33.716H203.853C203.325 33.716 203.075 33.4584 203.075 32.9433V20.4357C203.075 20.1781 203.131 19.9491 203.242 19.806C203.353 19.6629 203.576 19.577 203.881 19.577H206.188C206.383 19.577 206.577 19.6056 206.716 19.6915C206.855 19.7774 206.939 19.9205 206.994 20.1781L207.05 20.7791C207.717 20.2639 208.412 19.8632 209.162 19.577C209.913 19.2908 210.719 19.1477 211.553 19.1477C213.109 19.1477 214.249 19.6056 214.944 20.5502C215.639 21.466 216 22.7254 216 24.3282V32.8288C216 33.115 215.945 33.344 215.833 33.4871C215.722 33.6302 215.5 33.716 215.194 33.716H212.609C212.053 33.716 211.803 33.4298 211.803 32.8574V25.1296C211.803 24.4999 211.692 24.0134 211.497 23.6413C211.303 23.2692 210.858 23.0975 210.191 23.0975C209.718 23.0975 209.218 23.212 208.69 23.4123C208.162 23.6127 207.717 23.8989 207.3 24.2423V32.886H207.272Z" fill="#011833"/>
<path d="M48.1697 0.572397C48.2253 0.457911 48.2809 0.372046 48.3365 0.314803C48.4199 0.25756 48.5032 0.200317 48.6422 0.200317H50.1432C50.2822 0.200317 50.3656 0.228939 50.4489 0.314803C50.5323 0.372046 50.5879 0.457911 50.6157 0.572397L54.0346 9.78852C54.0902 9.93162 54.0902 10.0461 54.0624 10.132C54.0346 10.2465 53.9512 10.2751 53.7844 10.2751H52.2001C52.0333 10.2751 51.9221 10.2465 51.8387 10.1606C51.7553 10.0747 51.6997 9.98887 51.6442 9.87438L51.0882 8.18571H47.6138L47.0579 9.93162C47.0301 10.0175 46.9745 10.1034 46.9189 10.1892C46.8633 10.2465 46.7521 10.3037 46.6409 10.3037H45.14C45.001 10.3037 44.8898 10.2465 44.862 10.1606C44.8342 10.0461 44.8342 9.93162 44.8898 9.81714L48.1697 0.572397ZM50.4767 6.46842L49.5873 3.60628C49.5317 3.43455 49.5039 3.29144 49.4483 3.14833C49.3927 3.00522 49.3649 2.89074 49.3371 2.74763H49.3093C49.2815 2.89074 49.2259 3.00522 49.1981 3.14833C49.1425 3.29144 49.1147 3.43455 49.0592 3.60628L48.1697 6.46842H50.4767Z" fill="#011833"/>
<path d="M59.0938 5.09466L62.6516 9.78858C62.6794 9.81721 62.7072 9.87445 62.735 9.90307C62.7628 9.96031 62.7628 9.98893 62.7628 10.0462C62.7628 10.1034 62.735 10.1607 62.7072 10.2179C62.6516 10.2752 62.5682 10.3038 62.4571 10.3038H60.7615C60.567 10.3038 60.4002 10.2751 60.289 10.1893C60.1778 10.132 60.0666 10.0176 59.9554 9.87445L57.3149 6.12503H57.2593V9.87445C57.2593 10.1607 57.1203 10.3038 56.8423 10.3038H55.4525C55.3136 10.3038 55.2024 10.2752 55.119 10.2179C55.0356 10.1607 55.0078 10.0462 55.0078 9.87445V0.601083C55.0078 0.457976 55.0356 0.34349 55.119 0.314868C55.2024 0.257625 55.3136 0.229004 55.4247 0.229004H56.8145C56.9535 0.229004 57.0369 0.257625 57.1203 0.314868C57.2037 0.372111 57.2315 0.457976 57.2315 0.629705V4.66534H57.2871L59.7887 0.54384C59.8721 0.429354 59.9555 0.34349 60.0388 0.286247C60.1222 0.257625 60.2612 0.229004 60.4002 0.229004H61.7344C61.8734 0.229004 61.9567 0.257625 61.9845 0.314868C62.0401 0.372111 62.0401 0.429354 62.0401 0.486597C62.0401 0.54384 62.0401 0.572462 62.0123 0.629705C61.9845 0.686948 61.9567 0.715569 61.9289 0.772812L59.0938 5.09466Z" fill="#011833"/>
<path d="M70.2677 7.184C70.2677 7.69918 70.1843 8.18575 69.9897 8.58645C69.7952 8.98715 69.545 9.33061 69.2115 9.61682C68.8779 9.90304 68.5166 10.132 68.0718 10.2751C67.6271 10.4182 67.1824 10.5041 66.7099 10.5041C66.2373 10.5041 65.7648 10.4468 65.2367 10.361C64.7086 10.2751 64.2083 10.132 63.7635 9.9889C63.6246 9.93166 63.5412 9.87442 63.5134 9.78855C63.4856 9.70269 63.4856 9.5882 63.5412 9.41647L63.9303 8.24299C63.9581 8.15713 63.9859 8.09988 64.0137 8.04264C64.0693 7.9854 64.1249 7.95678 64.2083 7.95678C64.2639 7.95678 64.3472 7.9854 64.4584 8.01402C64.8198 8.15713 65.1811 8.27161 65.5425 8.32886C65.9316 8.41472 66.2929 8.44334 66.6543 8.44334C66.7933 8.44334 66.96 8.41472 67.099 8.3861C67.2658 8.35748 67.4048 8.30023 67.5159 8.21437C67.6549 8.12851 67.7661 8.01402 67.8495 7.89953C67.9329 7.78505 67.9885 7.61332 67.9885 7.44159C67.9885 7.15537 67.9051 6.95502 67.7105 6.7833C67.5437 6.64019 67.3214 6.49708 67.1268 6.41122L65.2367 5.52395C64.7086 5.26636 64.2916 4.9229 63.9859 4.49358C63.6801 4.06425 63.5134 3.52044 63.5134 2.91939C63.5134 2.46145 63.6246 2.03213 63.8191 1.68867C64.0137 1.31659 64.2916 1.03037 64.6252 0.77278C64.9587 0.515187 65.3201 0.343458 65.737 0.20035C66.154 0.057243 66.5709 0 66.96 0C67.4603 0 67.9607 0.057243 68.4054 0.143107C68.8501 0.228972 69.2948 0.372079 69.7396 0.57243C69.8786 0.629673 69.9619 0.715537 70.0175 0.801402C70.0453 0.887266 70.0453 1.00175 69.9897 1.14486L69.545 2.28972C69.4894 2.43283 69.4338 2.51869 69.3504 2.51869C69.2671 2.54731 69.1559 2.51869 69.0169 2.46145C68.2942 2.14661 67.6549 2.0035 67.099 2.0035C66.96 2.0035 66.821 2.03213 66.6821 2.06075C66.5431 2.08937 66.4041 2.14661 66.2929 2.20386C66.1817 2.28972 66.0706 2.37558 66.015 2.49007C65.9316 2.60456 65.9038 2.74766 65.9038 2.91939C65.9038 3.03388 65.9316 3.14836 65.9872 3.23423C66.0428 3.32009 66.1262 3.40596 66.2095 3.49182C66.2929 3.57769 66.4041 3.63493 66.5153 3.69217C66.6265 3.74942 66.7099 3.80666 66.7933 3.83528L68.4054 4.57944C68.9613 4.83703 69.406 5.18049 69.7396 5.60981C70.1009 5.98189 70.2677 6.5257 70.2677 7.184Z" fill="#011833"/>
</svg>
