<svg width="154" height="58" viewBox="0 0 154 58" fill="none" xmlns="http://www.w3.org/2000/svg">
<path d="M10.8415 0.418579C16.1341 0.418579 19.6341 2.33797 19.6341 6.59401C19.6341 8.59685 18.6951 10.3493 17.2439 11.9349C19.4634 13.1032 21.2561 15.1061 21.2561 18.1104C21.2561 22.9506 18.0122 25.4541 11.9512 25.4541H0V0.418579H10.8415V0.418579ZM12.2927 10.7666C12.8902 10.7666 13.2317 10.5997 13.5732 10.099C14 9.43137 14.2561 8.5134 14.2561 7.59543C14.2561 5.34223 13.1463 4.75807 10.4146 4.75807H5.29268V10.7666H12.2927V10.7666ZM5.29268 21.0312H11.5244C14.5976 21.0312 15.7073 20.1132 15.7073 17.86C15.7073 15.7737 14.939 14.8557 12.0366 14.8557H5.20732V21.0312H5.29268Z" fill="#001E41"/>
<path d="M38.8416 17.4414C38.5001 16.9406 38.4148 16.9406 37.8172 16.9406H32.4392V25.3693H27.1465V0.33374H37.2197C44.1343 0.33374 47.9758 2.58694 47.9758 8.51201C47.9758 11.8501 46.2684 14.4371 43.7075 15.9392L49.5123 25.3693H44.1343C43.6221 25.3693 43.4514 25.3693 43.1953 24.8686L38.8416 17.4414ZM40.1221 12.6846C40.8904 12.6846 41.3172 12.5177 41.6587 12.017C42.2562 11.1825 42.5123 9.93069 42.5123 8.59547C42.5123 7.34369 42.2562 6.42572 41.5733 5.84156C40.7197 5.17394 39.5245 4.84014 37.305 4.84014H32.4392V12.6846H40.1221Z" fill="#001E41"/>
<path d="M54.8906 0.417358H60.1833V25.4529H54.8906V0.417358Z" fill="#001E41"/>
<path d="M79.3039 25.3694H74.0112V4.75685H65.4746V0.417358H87.8405V4.75685H79.3039V25.3694Z" fill="#001E41"/>
<path d="M93.0479 0.417358H98.3405V25.4529H93.0479V0.417358Z" fill="#001E41"/>
<path d="M105.684 19.7781L108.33 20.3622C111.233 21.0298 113.196 21.2802 114.903 21.2802C117.464 21.2802 119.342 20.1953 119.342 18.109C119.342 16.5235 118.233 15.9393 115.245 15.0213L112.598 14.2703C107.476 12.7681 104.574 10.7653 104.574 6.84304C104.574 2.33665 108.928 0 114.306 0C117.208 0 120.281 0.584162 123.013 1.66904L122.245 5.17401L120.281 5.00711C118.318 4.75675 116.184 4.58985 114.733 4.58985C111.403 4.58985 109.611 5.25746 109.611 6.84304C109.611 8.26172 110.976 8.84589 113.708 9.59695L116.098 10.2646C122.245 12.0171 124.379 14.0199 124.379 17.7752C124.379 22.6154 120.794 25.7031 114.647 25.7031C111.233 25.7031 107.05 24.5348 104.403 23.0327L105.684 19.7781Z" fill="#001E41"/>
<path d="M147.512 14.7709H135.475V25.3693H130.183V0.33374H135.475V10.2645H147.512V0.417192H152.805V25.4527H147.512V14.7709Z" fill="#001E41"/>
<path d="M27.5732 32.6296V57.6652H22.3659V40.5576H22.2805L15.622 48.9027H12.4634C12.0366 48.9027 11.7805 48.8193 11.5244 48.4855L5.12195 40.5576V40.5576V57.6652H0V32.6296H4.26829C4.78049 32.6296 4.95122 32.7131 5.29268 33.2138L13.7439 43.5618H14L22.2805 33.2138C22.622 32.7965 22.7927 32.6296 23.3049 32.6296H27.5732V32.6296Z" fill="#001E41"/>
<path d="M31.2441 45.1475C31.2441 37.2196 37.3051 32.2125 44.1344 32.2125H44.2198C50.9637 32.2125 57.11 37.2196 57.11 45.1475C57.11 53.0755 51.049 57.9991 44.2198 57.9991H44.1344C37.3905 58.0826 31.2441 53.0755 31.2441 45.1475ZM44.1344 52.992C48.7441 52.992 51.4759 50.1547 51.4759 45.1475C51.4759 40.1404 48.6588 37.3031 44.2198 37.3031H44.1344C39.61 37.3031 36.8783 40.057 36.8783 45.1475C36.7929 50.1547 39.61 52.992 44.1344 52.992Z" fill="#001E41"/>
<path d="M71.2804 57.6652H65.9878V37.0526H57.4512V32.7131H79.817V37.0526H71.2804V57.6652Z" fill="#001E41"/>
<path d="M80.2441 45.1475C80.2441 37.2196 86.3051 32.2125 93.1344 32.2125H93.2198C99.9637 32.2125 106.11 37.2196 106.11 45.1475C106.11 53.0755 100.049 57.9991 93.2198 57.9991H93.1344C86.3905 58.0826 80.2441 53.0755 80.2441 45.1475ZM93.1344 52.992C97.7441 52.992 100.476 50.1547 100.476 45.1475C100.476 40.1404 97.6588 37.3031 93.1344 37.3031H93.049C88.5246 37.3031 85.7076 40.057 85.7076 45.1475C85.7929 50.1547 88.61 52.992 93.1344 52.992Z" fill="#001E41"/>
<path d="M121.39 49.7373C121.049 49.2365 120.964 49.2365 120.366 49.2365H114.988V57.6652H109.695V32.6296H119.768C126.683 32.6296 130.525 34.8828 130.525 40.8079C130.525 44.146 128.817 46.733 126.256 48.2351L132.061 57.6652H126.683C126.171 57.6652 126 57.6652 125.744 57.1645L121.39 49.7373ZM122.756 44.897C123.525 44.897 123.951 44.7301 124.293 44.2294C124.89 43.3949 125.147 42.1431 125.147 40.8079C125.147 39.5561 124.89 38.6382 124.208 38.054C123.439 37.3864 122.159 37.0526 119.939 37.0526H115.073V44.897H122.756Z" fill="#001E41"/>
<path d="M135.39 51.9906L138.037 52.5748C140.939 53.2424 142.902 53.4927 144.61 53.4927C147.171 53.4927 149.049 52.4079 149.049 50.3216C149.049 48.736 147.939 48.1518 144.951 47.2338L142.305 46.4828C137.183 44.9806 134.281 42.9778 134.281 39.0556C134.281 34.5492 138.634 32.2125 144.012 32.2125C146.915 32.2125 149.988 32.7967 152.72 33.8816L151.951 37.3865L149.902 37.1362C147.939 36.8858 145.805 36.7189 144.354 36.7189C141.024 36.7189 139.232 37.3865 139.232 38.9721C139.232 40.3908 140.598 40.975 143.329 41.726L145.72 42.3936C151.866 44.1461 154 46.149 154 49.9043C154 54.7445 150.415 57.8322 144.268 57.8322C140.854 57.8322 136.671 56.6639 134.024 55.1618L135.39 51.9906Z" fill="#001E41"/>
</svg>
