<svg width="200" height="56" viewBox="0 0 200 56" fill="none" xmlns="http://www.w3.org/2000/svg">
<path d="M158.545 0L157.932 0.171801L125.68 8.07464C124.277 8.41825 122.787 8.76185 121.385 9.10545L112.533 6.52844L97.2834 2.14751H97.1958H97.1082L84.4 8.76185L71.6919 15.4621L58.9837 22.1623C56.3544 23.5367 53.8128 24.9111 51.1835 26.2855C50.9206 26.3714 50.57 26.3714 50.3071 26.4573C45.6621 27.2304 41.017 28.0895 36.372 29.2062C40.6664 28.2613 44.9609 27.574 49.2554 26.8868C42.4193 28.6049 35.5832 30.3229 28.7471 32.0409L49.9565 27.0586C48.7295 27.7459 47.5026 28.3472 46.3632 29.0344C47.6778 28.3472 48.9925 27.66 50.3071 27.0586L53.2869 26.3714C56.9679 25.856 60.7366 25.3406 64.4175 24.9111C69.1502 24.3957 73.7953 23.9662 78.528 23.6226C83.2607 23.279 87.9933 23.1072 92.6384 23.0213C97.3711 22.9354 102.104 22.9354 106.836 23.1931C111.569 23.4508 116.302 23.7944 120.947 24.3957C122.612 24.5675 124.19 24.8252 125.767 25.0829L122.174 27.9177L125.855 25.0829C133.48 26.3714 141.017 28.2613 148.204 31.1819C143.822 29.378 139.352 27.9177 134.794 26.715L131.376 25.856L127.871 25.1688C127.257 25.0829 126.731 24.9111 126.118 24.8252L140.053 14.1736L155.566 2.23341L156.267 1.71801L158.02 0.343602L158.545 0ZM59.159 22.42L71.8671 15.8057L84.5753 9.19135L96.6699 2.83472L120.947 9.19135C111.744 11.4248 102.542 13.7441 93.3395 15.9775L61.0871 23.9662C57.932 24.7393 54.7769 25.5124 51.6217 26.2855C54.0757 25.0829 56.6174 23.7085 59.159 22.42ZM124.54 24.4816C123.401 24.3098 122.174 24.138 121.035 23.9662C116.389 23.279 111.657 22.9354 106.924 22.6777C102.191 22.42 97.4587 22.42 92.726 22.42C87.9933 22.5059 83.2607 22.7636 78.528 23.1072C73.7953 23.4508 69.1502 23.8803 64.4175 24.4816C61.5253 24.8252 58.7208 25.2547 55.8286 25.5983L123.401 9.70675L127.608 10.8235L123.664 9.70675L153.55 2.66291L126.118 24.6534C125.592 24.6534 125.066 24.5675 124.54 24.4816Z" fill="#011833"/>
<path d="M77.025 52.22C76.8504 52.031 76.5885 51.9365 76.4139 51.842C76.152 51.7475 75.8902 51.7475 75.6283 51.653H75.541C75.3664 51.653 75.2791 51.653 75.1045 51.7475C75.0172 51.7475 74.8427 51.842 74.7554 51.9365C74.6681 52.031 74.5808 52.1255 74.4935 52.22C74.4062 52.3145 74.4935 52.409 74.4935 52.5035C74.4935 52.598 74.4935 52.6925 74.5808 52.787C74.6681 52.8815 74.6681 52.8815 74.8427 52.976C74.9299 53.0705 75.1045 53.0705 75.2791 53.165C75.4537 53.2595 75.6283 53.2595 75.8902 53.354C76.152 53.4485 76.4139 53.543 76.5885 53.6375C76.7631 53.732 76.9377 53.8265 77.025 53.921C77.1123 54.0155 77.1996 54.11 77.2869 54.299C77.3741 54.488 77.3742 54.5825 77.3742 54.7715C77.3742 54.866 77.3741 55.055 77.2869 55.244C77.1996 55.5275 77.025 55.7165 76.7631 55.811C76.5012 55.9055 76.2393 56 75.8902 56C75.541 56 75.2791 55.9055 74.9299 55.811C74.6681 55.7165 74.4062 55.5275 74.1443 55.244L74.2316 55.1495C74.4935 55.433 74.6681 55.5275 74.9299 55.622C75.1918 55.7165 75.4537 55.7165 75.6283 55.811H75.7156H75.8029C75.8902 55.811 76.0648 55.811 76.152 55.811C76.2393 55.811 76.4139 55.7165 76.5012 55.7165C76.5885 55.622 76.6758 55.622 76.7631 55.5275C76.8504 55.433 76.9377 55.3385 76.9377 55.1495C76.9377 55.055 76.9377 54.866 76.8504 54.7715C76.7631 54.677 76.6758 54.5825 76.5885 54.488C76.5012 54.3935 76.3266 54.3935 76.152 54.299C75.9775 54.2045 75.8029 54.2045 75.6283 54.11C75.4537 54.11 75.2791 54.0155 75.1045 53.921C74.9299 53.8265 74.7554 53.8265 74.5808 53.6375C74.4062 53.543 74.3189 53.4485 74.1443 53.2595C74.057 53.0705 73.9697 52.8815 73.9697 52.6925C73.9697 52.5035 74.057 52.3145 74.1443 52.1255C74.2316 51.9365 74.3189 51.842 74.4935 51.7475C74.6681 51.653 74.8427 51.5585 75.0172 51.5585C75.1918 51.5585 75.3664 51.464 75.541 51.464C75.6283 51.464 75.8029 51.464 75.8902 51.464C75.9775 51.464 76.152 51.5585 76.2393 51.5585C76.3266 51.653 76.5012 51.653 76.5885 51.7475C76.6758 51.842 76.8504 51.9365 76.9377 52.031L77.025 52.22Z" fill="#011833"/>
<path d="M80.167 55.8102V51.5577H80.6907V55.8102H80.167Z" fill="#011833"/>
<path d="M83.7471 51.5577H84.3581L86.8896 55.2432V51.5577H87.0642V55.8102H86.5404L83.9217 52.0302V55.8102H83.7471V51.5577V51.5577Z" fill="#011833"/>
<path d="M92.0388 51.652C91.7769 51.652 91.515 51.7465 91.3404 51.841C91.1658 51.9355 90.9912 52.1245 90.8167 52.3135C90.6421 52.5025 90.5548 52.6915 90.5548 52.975C90.4675 53.2585 90.4675 53.4475 90.4675 53.731C90.4675 54.0145 90.4675 54.2035 90.5548 54.487C90.6421 54.7705 90.7294 54.9595 90.8167 55.1485C90.9912 55.3375 91.0785 55.5265 91.3404 55.621C91.515 55.7155 91.7769 55.81 92.0388 55.81C92.2133 55.81 92.3879 55.81 92.5625 55.7155C92.7371 55.621 92.9117 55.621 93.0863 55.5265C93.2609 55.432 93.3482 55.3375 93.5227 55.243C93.61 55.1485 93.7846 54.9595 93.8719 54.865L93.9592 54.9595C93.7846 55.243 93.5227 55.5265 93.2609 55.7155C92.9117 55.9045 92.5625 55.999 92.1261 55.999C91.7769 55.999 91.4277 55.9045 91.1658 55.81C90.904 55.7155 90.6421 55.5265 90.4675 55.3375C90.2929 55.1485 90.1183 54.865 90.031 54.5815C89.9437 54.298 89.8564 54.0145 89.8564 53.731C89.8564 53.4475 89.9437 53.164 90.031 52.8805C90.1183 52.597 90.2929 52.408 90.4675 52.1245C90.6421 51.9355 90.904 51.7465 91.1658 51.652C91.4277 51.5575 91.7769 51.463 92.1261 51.463C92.5625 51.463 92.999 51.5575 93.2609 51.7465C93.61 51.9355 93.7846 52.219 93.9592 52.5025L93.7846 52.597C93.6973 52.408 93.61 52.3135 93.4354 52.219C93.2609 52.1245 93.1736 52.03 92.999 51.9355C92.8244 51.841 92.6498 51.841 92.5625 51.7465C92.3006 51.652 92.2133 51.652 92.0388 51.652Z" fill="#011833"/>
<path d="M99.4594 51.5577V51.7467H97.1898V53.4477H98.761V53.6367H97.1898V55.5267H99.4594V55.7157H96.666V51.5577H99.4594Z" fill="#011833"/>
<path d="M105.831 55.8099C105.831 55.6209 105.831 55.4319 105.831 55.2429C105.918 55.0539 105.918 54.9594 106.006 54.7704C106.093 54.6759 106.18 54.4869 106.355 54.3924C106.442 54.2979 106.617 54.2034 106.791 54.1089C106.966 54.0144 107.053 53.9199 107.228 53.8254C107.402 53.7309 107.49 53.6364 107.577 53.4474C107.664 53.3529 107.751 53.1639 107.839 53.0694C107.926 52.8804 107.926 52.7859 107.926 52.5969C107.926 52.5024 107.926 52.3134 107.839 52.2189C107.839 52.1244 107.751 52.0299 107.664 51.9354C107.577 51.8409 107.49 51.7464 107.402 51.7464C107.315 51.7464 107.14 51.6519 107.053 51.6519C106.966 51.6519 106.879 51.6519 106.704 51.7464C106.617 51.7464 106.442 51.8409 106.355 51.9354C106.268 52.0299 106.18 52.0299 106.093 52.1244C106.006 52.2189 105.918 52.3134 105.918 52.4079L105.831 52.3134C105.918 52.2189 106.006 52.0299 106.093 51.9354C106.18 51.8409 106.355 51.7464 106.442 51.6519C106.529 51.5574 106.704 51.5574 106.879 51.4629C107.053 51.4629 107.14 51.3684 107.315 51.3684C107.49 51.3684 107.664 51.3684 107.751 51.4629C107.926 51.5574 108.013 51.5574 108.101 51.6519C108.188 51.7464 108.275 51.8409 108.363 52.0299C108.45 52.2189 108.45 52.4079 108.45 52.5969C108.45 52.8804 108.363 53.1639 108.275 53.3529C108.188 53.5419 108.013 53.7309 107.926 53.8254C107.752 54.0144 107.577 54.1089 107.402 54.2034C107.228 54.2979 107.053 54.3924 106.879 54.4869C106.704 54.5814 106.529 54.6759 106.442 54.8649C106.355 55.0539 106.18 55.1484 106.18 55.3374L108.45 55.2429V55.7154H105.831V55.8099Z" fill="#011833"/>
<path d="M112.815 55.9048C112.553 55.9048 112.291 55.8103 112.116 55.7158C111.942 55.6213 111.767 55.4323 111.593 55.2433C111.418 55.0543 111.331 54.7708 111.244 54.5818C111.156 54.2983 111.156 54.0148 111.156 53.8258C111.156 53.6368 111.156 53.2588 111.244 53.0698C111.331 52.7863 111.418 52.5973 111.593 52.4083C111.767 52.2193 111.942 52.0303 112.116 51.9358C112.291 51.8413 112.553 51.7468 112.815 51.7468C113.077 51.7468 113.339 51.8413 113.513 51.9358C113.688 52.0303 113.862 52.2193 114.037 52.4083C114.211 52.5973 114.299 52.8808 114.386 53.0698C114.473 53.2588 114.473 53.6368 114.473 53.8258C114.473 54.0148 114.473 54.3928 114.386 54.5818C114.299 54.7708 114.211 55.0543 114.037 55.2433C113.862 55.4323 113.688 55.6213 113.513 55.7158C113.339 55.8103 113.164 55.9048 112.815 55.9048ZM112.815 51.6523C112.64 51.6523 112.466 51.7468 112.378 51.8413C112.204 51.9358 112.116 52.1248 112.029 52.3138C111.942 52.5028 111.855 52.6918 111.855 52.9753C111.855 53.2588 111.767 53.4478 111.767 53.7313C111.767 54.0148 111.767 54.2038 111.855 54.4873C111.942 54.7708 111.942 54.9598 112.029 55.1488C112.116 55.3378 112.204 55.5268 112.378 55.6213C112.553 55.7158 112.64 55.8103 112.815 55.8103C112.989 55.8103 113.164 55.7158 113.251 55.6213C113.426 55.5268 113.513 55.3378 113.6 55.1488C113.688 54.9598 113.775 54.7708 113.775 54.4873C113.862 54.2038 113.862 54.0148 113.862 53.7313C113.862 53.4478 113.862 53.2588 113.775 52.9753C113.688 52.6918 113.688 52.5028 113.6 52.3138C113.513 52.1248 113.426 51.9358 113.251 51.8413C113.164 51.7468 112.989 51.6523 112.815 51.6523Z" fill="#011833"/>
<path d="M117.092 55.8099C117.092 55.6209 117.092 55.4319 117.092 55.2429C117.179 55.0539 117.179 54.9594 117.266 54.7704C117.354 54.6759 117.441 54.4869 117.616 54.3924C117.703 54.2979 117.877 54.2034 118.052 54.1089C118.227 54.0144 118.314 53.9199 118.488 53.8254C118.663 53.7309 118.75 53.6364 118.838 53.4474C118.925 53.3529 119.012 53.1639 119.1 53.0694C119.187 52.8804 119.187 52.7859 119.187 52.5969C119.187 52.5024 119.187 52.3134 119.1 52.2189C119.1 52.1244 119.012 52.0299 118.925 51.9354C118.838 51.8409 118.75 51.7464 118.663 51.7464C118.576 51.7464 118.401 51.6519 118.314 51.6519C118.227 51.6519 118.139 51.6519 117.965 51.7464C117.877 51.7464 117.703 51.8409 117.616 51.9354C117.528 52.0299 117.441 52.0299 117.354 52.1244C117.266 52.2189 117.179 52.3134 117.179 52.4079L117.092 52.3134C117.179 52.2189 117.266 52.0299 117.354 51.9354C117.441 51.8409 117.616 51.7464 117.703 51.6519C117.79 51.5574 117.965 51.5574 118.139 51.4629C118.314 51.4629 118.401 51.3684 118.576 51.3684C118.75 51.3684 118.925 51.3684 119.012 51.4629C119.187 51.5574 119.274 51.5574 119.361 51.6519C119.449 51.7464 119.536 51.8409 119.623 52.0299C119.711 52.2189 119.711 52.4079 119.711 52.5969C119.711 52.8804 119.623 53.1639 119.536 53.3529C119.449 53.5419 119.274 53.7309 119.187 53.8254C119.012 54.0144 118.838 54.1089 118.663 54.2034C118.488 54.2979 118.314 54.3924 118.139 54.4869C117.965 54.5814 117.79 54.6759 117.703 54.8649C117.616 55.0539 117.441 55.1484 117.441 55.3374L119.711 55.2429V55.7154H117.092V55.8099Z" fill="#011833"/>
<path d="M124.076 55.9048C123.814 55.9048 123.552 55.8103 123.377 55.7158C123.203 55.6213 123.028 55.4323 122.853 55.2433C122.679 55.0543 122.592 54.7708 122.504 54.5818C122.417 54.2983 122.417 54.0148 122.417 53.8258C122.417 53.6368 122.417 53.2588 122.504 53.0698C122.592 52.7863 122.679 52.5973 122.853 52.4083C123.028 52.2193 123.203 52.0303 123.377 51.9358C123.552 51.8413 123.814 51.7468 124.076 51.7468C124.337 51.7468 124.599 51.8413 124.774 51.9358C124.948 52.0303 125.123 52.2193 125.298 52.4083C125.472 52.5973 125.56 52.8808 125.647 53.0698C125.734 53.2588 125.734 53.6368 125.734 53.8258C125.734 54.0148 125.734 54.3928 125.647 54.5818C125.56 54.7708 125.472 55.0543 125.298 55.2433C125.123 55.4323 124.948 55.6213 124.774 55.7158C124.599 55.8103 124.337 55.9048 124.076 55.9048ZM124.076 51.6523C123.901 51.6523 123.726 51.7468 123.639 51.8413C123.465 51.9358 123.377 52.1248 123.29 52.3138C123.203 52.5028 123.115 52.6918 123.115 52.9753C123.115 53.2588 123.028 53.4478 123.028 53.7313C123.028 54.0148 123.028 54.2038 123.115 54.4873C123.203 54.7708 123.203 54.9598 123.29 55.1488C123.377 55.3378 123.465 55.5268 123.639 55.6213C123.814 55.7158 123.901 55.8103 124.076 55.8103C124.25 55.8103 124.425 55.7158 124.512 55.6213C124.687 55.5268 124.774 55.3378 124.861 55.1488C124.948 54.9598 125.036 54.7708 125.036 54.4873C125.123 54.2038 125.123 54.0148 125.123 53.7313C125.123 53.4478 125.123 53.2588 125.036 52.9753C124.948 52.6918 124.948 52.5028 124.861 52.3138C124.774 52.1248 124.687 51.9358 124.512 51.8413C124.425 51.7468 124.25 51.6523 124.076 51.6523Z" fill="#011833"/>
<path d="M0 30.2379H7.01139C7.62489 30.2379 8.15075 30.3238 8.58896 30.5815C9.02717 30.8392 9.37774 31.0969 9.64067 31.4405C9.90359 31.7841 10.0789 32.2136 10.2542 32.6431C10.4294 33.0726 10.3418 33.5021 10.3418 33.9316C10.2542 34.3611 10.0789 34.7906 9.90359 35.1342C9.64067 35.5637 9.2901 35.8214 8.93953 36.0791C9.55302 36.2509 9.99124 36.5945 10.4294 37.0241C10.78 37.4536 11.0429 37.969 11.2182 38.4844C11.3935 38.9998 11.3935 39.6011 11.3059 40.1165C11.2182 40.7178 11.0429 41.2332 10.6924 41.6627C10.4294 42.1781 9.99124 42.5217 9.46538 42.8653C8.93953 43.123 8.32603 43.2948 7.53725 43.2948H0V30.2379ZM5.87204 35.9073C6.48554 35.9073 7.01139 35.8214 7.36196 35.5637C7.80018 35.306 8.0631 34.9624 8.23839 34.6188C8.41367 34.2752 8.50132 33.8457 8.50132 33.4162C8.50132 32.9867 8.41367 32.5572 8.23839 32.2136C8.0631 31.87 7.71253 31.5264 7.36196 31.2687C7.01139 31.011 6.48554 30.9251 5.87204 30.9251H1.92813V35.9932H5.87204V35.9073ZM5.95969 42.8653C6.66082 42.8653 7.18668 42.6935 7.71253 42.4358C8.0631 42.0922 8.41367 41.7486 8.6766 41.2332C8.93953 40.7178 9.02717 40.2883 9.02717 39.687C9.02717 39.0857 8.93953 38.6562 8.6766 38.1408C8.41367 37.7113 8.0631 37.2818 7.62489 36.9382C7.18668 36.5945 6.57318 36.5086 5.87204 36.5086H1.92813V42.7794H5.95969V42.8653Z" fill="#011833"/>
<path d="M13.1465 43.4657L14.2858 30.2371H15.951L20.7714 39.8579L24.9782 30.2371H26.9063L28.0457 43.4657H26.0299L24.9782 32.1269L20.2455 42.7785L14.987 32.3846L13.9353 43.3798H13.1465V43.4657Z" fill="#011833"/>
<path d="M41.4548 30.2371C42.5065 30.2371 43.3829 30.4089 44.084 30.8384C44.7852 31.2679 45.311 31.7833 45.7492 32.3846C46.0998 32.9859 46.2751 33.6731 46.2751 34.3603C46.2751 35.0475 46.0998 35.7347 45.7492 36.336C45.3987 36.9373 44.8728 37.4527 44.1717 37.8822C43.4705 38.3117 42.5065 38.4835 41.4548 38.4835H36.7221V43.3798H34.7939V30.2371H41.4548ZM36.6344 30.8384V37.8822H40.1401C41.1042 37.8822 41.8053 37.7104 42.4188 37.3668C43.0323 37.0232 43.4705 36.5937 43.7335 36.0783C43.9964 35.5629 44.1717 34.9616 44.1717 34.3603C44.1717 33.759 43.9964 33.1577 43.7335 32.6423C43.4705 32.1269 42.9447 31.6974 42.3312 31.3538C41.7177 31.0102 41.0166 30.8384 40.0525 30.8384H36.6344V30.8384Z" fill="#011833"/>
<path d="M54.0757 34.1025C54.0757 34.3602 53.988 34.532 53.9004 34.7897C53.8127 35.0474 53.8127 35.2192 53.7251 35.4769C53.5498 35.3051 53.1992 35.3051 52.6734 35.3051C52.4104 35.3051 52.1475 35.3051 51.8846 35.391C51.6217 35.4769 51.3587 35.4769 51.0958 35.6487C50.8329 35.7346 50.57 35.9064 50.3947 36.0782C50.2194 36.25 50.0441 36.4218 49.8688 36.6795V43.6375H48.0283V34.1025H49.343L49.8688 35.1333V35.9923C50.1317 35.4769 50.57 35.0474 51.0958 34.6179C51.6217 34.2743 52.3228 34.0166 53.1992 34.0166C53.5498 34.0166 53.8127 34.0166 54.0757 34.1025Z" fill="#011833"/>
<path d="M54.5137 38.827C54.5137 38.0539 54.689 37.3667 54.9519 36.7654C55.2148 36.1641 55.5654 35.6487 56.0036 35.2192C56.4418 34.7897 56.9677 34.532 57.5812 34.2743C58.1947 34.1025 58.7205 33.9307 59.334 33.9307C59.8599 33.9307 60.2981 34.0166 60.8239 34.1025C61.3498 34.1884 61.788 34.4461 62.2262 34.7038C62.6644 34.9615 63.015 35.3051 63.3656 35.7346C63.7161 36.1641 63.8914 36.6795 64.0667 37.3667C64.0667 37.4526 64.1543 37.6244 64.1543 37.7962C64.1543 37.968 64.1543 38.1398 64.1543 38.3116C64.1543 38.4834 64.1543 38.6552 64.1543 38.827C64.1543 38.9988 64.1543 39.0847 64.1543 39.1706H56.88C56.88 39.686 57.0553 40.2014 57.2306 40.6309C57.4059 41.0604 57.6688 41.4899 58.0194 41.8335C58.3699 42.1771 58.7205 42.4348 59.1587 42.6066C59.5969 42.7784 60.0351 42.8643 60.4734 42.8643C60.7363 42.8643 60.9992 42.8643 61.2621 42.7784C61.5251 42.6925 61.788 42.6066 62.0509 42.4348C62.3139 42.263 62.5768 42.1771 62.8397 41.9194C63.1026 41.7476 63.2779 41.5758 63.3656 41.3181L63.7161 41.5758C63.1903 42.1771 62.5768 42.6925 61.788 43.0361C60.9992 43.3797 60.2981 43.5515 59.5093 43.5515C58.8958 43.5515 58.2823 43.4656 57.7564 43.2938C57.1429 43.122 56.7047 42.7784 56.1789 42.4348C55.653 42.0912 55.3901 41.5758 55.1272 40.9745C54.689 40.3732 54.5137 39.6001 54.5137 38.827ZM62.1386 38.6552C62.2262 37.968 62.1386 37.3667 62.0509 36.8513C61.8756 36.3359 61.7003 35.9064 61.4374 35.5628C61.1745 35.2192 60.8239 34.9615 60.4734 34.7897C60.1228 34.6179 59.7722 34.532 59.4217 34.532C59.0711 34.532 58.7205 34.6179 58.3699 34.7897C58.0194 34.9615 57.7564 35.2192 57.4935 35.6487C57.2306 35.9923 57.0553 36.4218 56.88 36.9372C56.7047 37.4526 56.7047 38.0539 56.7047 38.7411H62.1386V38.6552Z" fill="#011833"/>
<path d="M65.9941 43.4656V34.1025H67.3964L67.747 35.1333C68.1852 34.7038 68.6234 34.4461 69.1493 34.2743C69.6751 34.1025 70.201 33.9307 70.8145 33.9307C71.428 33.9307 72.0415 34.0166 72.5673 34.2743C73.0932 34.532 73.619 34.8756 73.882 35.4769C74.0572 35.2192 74.2325 35.0474 74.4955 34.7897C74.7584 34.6179 75.0213 34.4461 75.2842 34.2743C75.5472 34.1025 75.8977 34.0166 76.1607 34.0166C76.5112 33.9307 76.7742 33.9307 77.0371 33.9307C77.5629 33.9307 78.0012 34.0166 78.4394 34.1025C78.8776 34.1884 79.3158 34.4461 79.6664 34.7897C80.0169 35.1333 80.2799 35.5628 80.4551 36.0782C80.6304 36.5936 80.7181 37.2808 80.6304 38.1398V43.4656H78.8776V38.0539C78.8776 37.4526 78.8776 36.8513 78.7023 36.4218C78.6147 35.9923 78.4394 35.6487 78.2641 35.391C78.0888 35.1333 77.8259 34.8756 77.5629 34.7897C77.3 34.7038 77.0371 34.6179 76.7742 34.532C76.2483 34.532 75.7225 34.6179 75.2842 34.8756C74.846 35.1333 74.4078 35.4769 74.1449 35.8205C74.4078 36.4218 74.4955 37.1949 74.4078 38.1398V43.4656H72.4797V38.0539C72.4797 37.4526 72.4797 36.8513 72.3044 36.4218C72.2168 35.9923 72.0415 35.6487 71.8662 35.391C71.6909 35.1333 71.428 34.8756 71.165 34.7897C70.9021 34.6179 70.6392 34.6179 70.3763 34.532C69.8504 34.532 69.4122 34.6179 68.974 34.8756C68.5358 35.0474 68.1852 35.391 67.8346 35.7346V43.4656H65.9941V43.4656Z" fill="#011833"/>
<path d="M85.3637 30.4947C85.539 30.6665 85.7143 31.0101 85.7143 31.2678C85.7143 31.5255 85.6266 31.7832 85.3637 32.0409C85.1884 32.2127 84.9255 32.3845 84.5749 32.3845C84.2243 32.3845 83.9614 32.2986 83.7861 32.0409C83.6108 31.8691 83.4355 31.6114 83.4355 31.2678C83.4355 30.9242 83.5232 30.6665 83.7861 30.4947C83.9614 30.3229 84.312 30.1511 84.5749 30.1511C84.9255 30.237 85.1884 30.3229 85.3637 30.4947ZM85.4513 34.1025H83.7861V43.4657H85.4513V34.1025Z" fill="#011833"/>
<path d="M87.3795 39.3423V34.1024H89.3077V39.4282C89.3077 40.0296 89.3953 40.545 89.483 40.9745C89.6582 41.404 89.8335 41.7476 90.0965 42.0912C90.3594 42.3489 90.6223 42.6066 90.9729 42.6925C91.3235 42.8643 91.674 42.8643 92.0246 42.8643C92.5505 42.8643 92.9887 42.7784 93.4269 42.5207C93.8651 42.3489 94.3033 42.0053 94.6539 41.6617V34.1024H96.4944V43.4656H95.0921L94.6539 42.263C94.2157 42.6925 93.7774 42.9502 93.164 43.2079C92.5505 43.3797 92.0246 43.5515 91.4111 43.5515C90.8852 43.5515 90.3594 43.4656 89.8335 43.2938C89.3077 43.122 88.8695 42.8643 88.5189 42.5207C88.1683 42.1771 87.8178 41.7476 87.6425 41.2322C87.3795 40.6309 87.2919 40.0295 87.3795 39.3423Z" fill="#011833"/>
<path d="M98.5107 43.4656V34.1025H99.913L100.264 35.1333C100.702 34.7038 101.14 34.4461 101.666 34.2743C102.192 34.1025 102.718 33.9307 103.331 33.9307C103.945 33.9307 104.558 34.0166 105.084 34.2743C105.61 34.532 106.136 34.8756 106.399 35.4769C106.574 35.2192 106.749 35.0474 107.012 34.7897C107.275 34.6179 107.538 34.4461 107.801 34.2743C108.064 34.1025 108.414 34.0166 108.677 34.0166C109.028 33.9307 109.291 33.9307 109.554 33.9307C110.08 33.9307 110.518 34.0166 110.956 34.1025C111.394 34.2743 111.832 34.4461 112.183 34.7897C112.534 35.1333 112.796 35.5628 112.972 36.0782C113.147 36.5936 113.235 37.2808 113.147 38.1398V43.4656H111.219V38.0539C111.219 37.4526 111.219 36.8513 111.044 36.4218C110.956 35.9923 110.781 35.6487 110.605 35.391C110.43 35.1333 110.167 34.8756 109.904 34.7897C109.641 34.6179 109.378 34.6179 109.115 34.532C108.59 34.532 108.064 34.6179 107.626 34.8756C107.187 35.1333 106.749 35.4769 106.486 35.8205C106.749 36.4218 106.837 37.1949 106.749 38.1398V43.4656H104.821V38.0539C104.821 37.4526 104.821 36.8513 104.646 36.4218C104.558 35.9923 104.383 35.6487 104.207 35.391C104.032 35.1333 103.769 34.8756 103.506 34.7897C103.243 34.7038 102.981 34.6179 102.718 34.532C102.192 34.532 101.754 34.6179 101.315 34.8756C100.877 35.0474 100.527 35.391 100.176 35.7346V43.4656H98.5107V43.4656Z" fill="#011833"/>
<path d="M123.137 30.2371L128.22 37.8822L133.303 30.2371H134.267L128.746 38.4835V43.4657H126.818V39.0848L120.771 30.323H123.137V30.2371Z" fill="#011833"/>
<path d="M133.83 35.9922C134.268 35.305 134.794 34.8755 135.495 34.5319C136.196 34.1883 136.897 34.1024 137.773 34.1024C139.088 34.1024 140.052 34.3601 140.666 34.9614C141.279 35.4768 141.63 36.5076 141.63 37.7961V43.4656H140.14L139.877 42.9502C139.614 43.122 139.263 43.2938 138.825 43.4656C138.387 43.6374 137.773 43.7233 137.16 43.7233C136.722 43.7233 136.196 43.6374 135.67 43.5515C135.144 43.4656 134.706 43.2079 134.355 42.9502C134.005 42.6925 133.742 42.3489 133.567 41.9194C133.391 41.4899 133.304 41.1463 133.304 40.7168C133.304 40.2872 133.391 39.8577 133.567 39.5141C133.742 39.0846 134.005 38.8269 134.355 38.4833C134.706 38.1397 135.144 37.9679 135.67 37.882C136.108 37.7961 136.459 37.7102 136.897 37.6243C137.335 37.5384 137.773 37.5384 138.124 37.4525C138.475 37.3666 138.825 37.2807 139.176 37.1948C139.439 37.1089 139.702 36.9371 139.789 36.7653C139.702 36.0781 139.526 35.4768 139.176 35.1332C138.825 34.7896 138.299 34.6178 137.511 34.6178C137.16 34.6178 136.809 34.7037 136.459 34.7896C136.108 34.8755 135.845 35.0473 135.582 35.1332C135.319 35.2191 135.057 35.4768 134.881 35.6486C134.706 35.8204 134.531 36.0781 134.355 36.2499L133.83 35.9922ZM139.702 42.4348V37.2807C139.351 37.4525 139 37.7102 138.562 37.7961C138.124 37.9679 137.598 38.0538 136.897 38.2256C136.459 38.3115 136.108 38.5692 135.845 38.8269C135.582 39.0846 135.407 39.4282 135.232 39.7718C135.144 40.1154 135.057 40.5449 135.057 40.8886C135.057 41.2322 135.232 41.6617 135.319 42.0053C135.407 42.3489 135.758 42.6066 136.021 42.7784C136.284 43.0361 136.722 43.122 137.072 43.122C137.598 43.122 138.036 43.0361 138.475 42.9502C138.913 43.0361 139.351 42.7784 139.702 42.4348Z" fill="#011833"/>
<path d="M151.972 34.9615C151.884 35.0474 151.796 35.1333 151.796 35.1333C151.796 35.1333 151.709 35.2192 151.621 35.3051C151.271 35.0474 150.92 34.7897 150.482 34.6179C150.044 34.4461 149.605 34.3602 149.167 34.3602C148.729 34.3602 148.291 34.532 147.853 34.7038C147.414 34.9615 146.976 35.3051 146.626 35.6487C146.275 36.0782 146.012 36.5077 145.749 37.109C145.574 37.6244 145.399 38.2257 145.399 38.827C145.399 39.4283 145.486 39.9437 145.749 40.4591C145.924 40.9745 146.187 41.404 146.538 41.8335C146.888 42.1771 147.239 42.5207 147.677 42.7784C148.115 43.0361 148.554 43.122 148.904 43.122C149.08 43.122 149.167 43.122 149.167 43.122C149.781 43.0361 150.307 42.8643 150.657 42.6066C151.008 42.3489 151.358 42.0912 151.709 41.8335L152.059 42.1771C151.621 42.6925 151.008 43.0361 150.394 43.2938C149.693 43.5515 149.08 43.7233 148.378 43.7233C147.765 43.7233 147.151 43.6374 146.538 43.3797C145.924 43.122 145.399 42.8643 144.96 42.4348C144.522 42.0053 144.172 41.4899 143.821 40.8886C143.558 40.2873 143.383 39.6001 143.383 38.827C143.383 38.0539 143.558 37.3667 143.821 36.7654C144.084 36.1641 144.522 35.6487 144.96 35.2192C145.486 34.7897 146.012 34.4461 146.626 34.2743C147.239 34.0166 147.853 33.9307 148.554 33.9307C148.641 33.9307 148.641 33.9307 148.729 33.9307C148.817 33.9307 148.904 33.9307 148.904 33.9307C149.518 33.9307 150.044 34.1025 150.482 34.2743C151.183 34.3602 151.621 34.6179 151.972 34.9615Z" fill="#011833"/>
<path d="M154.075 30.4092H155.916V35.2196C156.354 34.7901 156.88 34.5324 157.493 34.2747C158.107 34.017 158.808 33.9311 159.421 33.9311C159.947 33.9311 160.473 34.017 160.911 34.1888C161.437 34.3606 161.788 34.6183 162.226 34.9619C162.577 35.3055 162.839 35.735 163.102 36.2504C163.278 36.7658 163.365 37.453 163.365 38.2261V43.466H161.437V38.1402C161.437 37.5389 161.35 36.9376 161.262 36.5081C161.087 36.0786 160.911 35.735 160.648 35.4773C160.385 35.2196 160.123 35.0478 159.772 34.876C159.421 34.7042 159.071 34.7042 158.808 34.7042C158.545 34.7042 158.282 34.7042 157.931 34.7901C157.669 34.876 157.406 34.9619 157.143 35.0478C156.88 35.1337 156.704 35.3055 156.442 35.4773C156.266 35.6491 156.091 35.8209 155.916 35.9927V43.3801H154.075V30.4092V30.4092Z" fill="#011833"/>
<path d="M167.222 30.8394V34.1036H169.501V34.8767H167.222V39.4294C167.222 40.7179 167.397 41.6628 167.66 42.2641C167.923 42.8654 168.449 43.209 169.238 43.209C170.027 43.209 170.64 42.9513 171.166 42.35L171.692 42.7795C171.341 43.1231 170.991 43.3808 170.553 43.4667C170.114 43.5526 169.676 43.6385 169.15 43.6385C168.712 43.6385 168.274 43.5526 167.836 43.4667C167.397 43.2949 167.047 43.1231 166.696 42.7795C166.346 42.4359 166.083 42.0064 165.907 41.491C165.732 40.9756 165.645 40.2884 165.645 39.4294V30.8394H167.222V30.8394Z" fill="#011833"/>
<path d="M175.198 30.4947C175.373 30.6665 175.548 31.0101 175.548 31.2678C175.548 31.5255 175.461 31.7832 175.198 32.0409C175.022 32.2127 174.759 32.3845 174.409 32.3845C174.058 32.3845 173.795 32.2986 173.62 32.0409C173.445 31.8691 173.27 31.6114 173.27 31.2678C173.27 30.9242 173.357 30.6665 173.62 30.4947C173.795 30.3229 174.146 30.1511 174.409 30.1511C174.759 30.237 175.022 30.3229 175.198 30.4947ZM175.285 34.1025H173.62V43.4657H175.285V34.1025Z" fill="#011833"/>
<path d="M177.563 43.4656V34.0166H178.966L179.404 35.1333C179.579 34.9615 179.842 34.7897 180.105 34.6179C180.368 34.4461 180.719 34.3602 180.982 34.2743C181.244 34.1884 181.595 34.1025 181.946 34.0166C182.296 33.9307 182.559 33.9307 182.822 33.9307C183.348 33.9307 183.786 34.0166 184.312 34.1025C184.838 34.2743 185.188 34.4461 185.627 34.7897C185.977 35.1333 186.328 35.5628 186.503 36.0782C186.678 36.5936 186.766 37.2808 186.766 38.1398V43.4656H184.838V38.0539C184.838 37.4526 184.75 36.8513 184.662 36.4218C184.487 35.9923 184.312 35.6487 184.049 35.3051C183.786 35.0474 183.523 34.7897 183.26 34.7038C182.997 34.532 182.647 34.532 182.384 34.4461C182.121 34.4461 181.858 34.4461 181.595 34.532C181.332 34.6179 181.069 34.7038 180.806 34.7897C180.543 34.8756 180.28 35.0474 180.017 35.1333C179.755 35.3051 179.579 35.4769 179.404 35.6487V43.3797H177.563V43.4656Z" fill="#011833"/>
<path d="M193.778 33.8448C194.567 33.8448 195.18 33.9307 195.794 34.1884C196.407 34.3602 196.933 34.7038 197.371 35.0474C197.722 34.7897 197.985 34.4461 198.248 34.1025C198.511 33.7589 198.686 33.4153 198.773 33.0717C199.036 33.1576 199.212 33.3294 199.387 33.4153C199.562 33.5012 199.825 33.5871 200 33.7589C199.738 34.1025 199.387 34.4461 198.949 34.7038C198.511 34.9615 198.16 35.2192 197.634 35.4769C198.072 35.9064 198.423 36.5077 198.686 37.0231C198.949 37.6244 199.036 38.2257 199.036 38.827C199.036 39.4283 198.949 40.0296 198.773 40.6309C198.598 41.2322 198.248 41.7476 197.809 42.263C197.371 42.6925 196.845 43.122 196.144 43.3797C195.443 43.6374 194.654 43.8092 193.778 43.8092C192.551 43.8092 191.587 43.5515 190.798 43.0361C190.009 42.5207 189.396 41.9194 189.045 41.2322C188.695 40.4591 188.432 39.686 188.432 38.827C188.432 37.968 188.607 37.1949 189.045 36.4218C189.483 35.6487 190.009 35.0474 190.798 34.6179C191.674 34.1025 192.638 33.8448 193.778 33.8448ZM190.009 42.7784C190.097 42.8643 190.272 42.9502 190.447 43.0361C190.097 43.2938 189.922 43.5515 189.834 43.8092C189.746 44.0669 189.834 44.2387 190.009 44.4964C190.184 44.7541 190.447 44.84 190.798 44.9259C191.149 45.0118 191.674 45.0977 192.2 45.0977H196.845C197.634 45.0977 198.248 45.2695 198.598 45.6131C198.949 45.9567 199.212 46.3862 199.299 46.8157C199.387 47.2452 199.212 47.7606 199.036 48.1901C198.861 48.6196 198.423 49.0491 197.897 49.3068L197.634 49.135C197.809 48.8773 197.897 48.6196 197.985 48.3619C198.072 48.1042 198.072 47.8465 198.072 47.5888C197.985 47.3311 197.809 47.1593 197.546 46.9875C197.284 46.8157 196.845 46.7298 196.144 46.7298H191.587C190.798 46.7298 190.097 46.558 189.659 46.3003C189.22 46.0426 188.957 45.699 188.782 45.2695C188.607 44.7541 188.695 44.3246 188.87 43.8092C189.045 43.2938 189.396 43.122 190.009 42.7784ZM193.865 43.2938C194.567 43.2938 195.18 43.0361 195.618 42.6066C196.057 42.1771 196.407 41.5758 196.67 40.9745C196.845 40.2873 197.021 39.6001 196.933 38.827C196.933 38.0539 196.758 37.3667 196.582 36.6795C196.407 35.9923 195.969 35.4769 195.531 35.0474C195.092 34.6179 194.479 34.3602 193.865 34.3602C193.252 34.3602 192.638 34.6179 192.2 35.0474C191.762 35.4769 191.411 36.0782 191.149 36.6795C190.886 37.3667 190.798 38.0539 190.798 38.827C190.798 39.6001 190.886 40.2873 191.149 40.9745C191.411 41.6617 191.762 42.1771 192.2 42.6066C192.551 43.122 193.164 43.2938 193.865 43.2938Z" fill="#011833"/>
</svg>
