<svg width="188" height="56" viewBox="0 0 188 56" fill="none" xmlns="http://www.w3.org/2000/svg">
<path d="M37.4727 0.118408V31.9886H55.3109V28.4738H41.2638V0.118408H37.4727Z" fill="#011833"/>
<path d="M144.063 0.0394287C134.605 0.0394287 127.183 7.06905 127.183 16.0338C127.183 25.038 134.605 32.1071 144.063 32.1071C153.481 32.1071 160.864 25.038 160.864 16.0338C160.864 7.06905 153.481 0.0394287 144.063 0.0394287ZM144.063 28.6713C136.88 28.6713 131.054 23.0239 131.054 16.0733C131.054 9.16214 136.88 3.55424 144.063 3.55424C151.166 3.55424 156.993 9.16214 156.993 16.0733C156.953 22.9844 151.166 28.6713 144.063 28.6713Z" fill="#011833"/>
<path d="M177.824 14.0197L177.904 13.7433L177.824 14.0197C173.634 12.756 170.002 11.6502 170.002 7.93794C170.002 5.29196 172.596 3.67278 176.747 3.67278C179.7 3.67278 182.972 4.66008 185.526 6.27927L185.606 6.31876L187.242 2.96192H187.162C184.369 1.10578 180.578 0 176.946 0C170.162 0 165.812 3.23836 165.812 8.21439C165.812 14.3752 171.16 15.9549 175.869 17.3371C180.139 18.6008 183.81 19.7066 183.81 23.5769C183.81 26.6178 181.017 28.4344 176.388 28.4344C172.716 28.4344 168.686 26.7362 165.772 24.0113L165.693 23.9323L163.977 27.2102L164.016 27.2496C167.249 30.2905 171.838 32.1072 176.348 32.1072C183.331 32.1072 188 28.5924 188 23.3794C188 17.1001 182.613 15.481 177.824 14.0197Z" fill="#011833"/>
<path d="M28.8126 4.42282C25.62 1.65837 21.3101 0.0391846 16.9603 0.0391846C7.46253 0.0391846 0 7.0688 0 16.073C0 25.0773 7.38272 32.1464 16.7608 32.1464C20.951 32.1464 25.4205 30.6062 28.6928 27.9997L28.7328 27.9602V16.3495H25.1013V26.1436L24.9815 26.2225C22.5472 27.7627 19.634 28.6316 17.0002 28.6316C9.73721 28.6316 3.87094 22.9842 3.87094 16.0335C3.87094 9.1224 9.73721 3.47501 16.9603 3.47501C20.4721 3.47501 23.9839 4.81775 26.6177 7.1083L26.6576 7.14779L28.8525 4.38333L28.8126 4.42282Z" fill="#011833"/>
<path d="M111.02 0.118408H97.4521V31.9886H111.22C118.523 31.9886 122.873 28.7503 122.873 23.3004C122.873 19.3906 120.718 16.5472 116.927 15.5204L116.089 15.2834L116.927 14.9675C119.84 13.8617 121.556 11.3737 121.556 8.13533C121.476 3.11982 117.565 0.118408 111.02 0.118408ZM110.861 13.8617H104.994V17.3765H111.02C113.973 17.3765 116.248 18.0874 117.605 19.3906C118.523 20.2989 119.002 21.4442 119.002 22.8659C119.002 24.3272 118.523 25.5514 117.565 26.4597C116.208 27.8025 114.013 28.4738 111.22 28.4738C111.1 28.4738 110.941 28.4738 110.821 28.4738H101.243V3.63322H110.821C115.091 3.63322 117.565 5.48935 117.565 8.68823C117.565 11.9661 115.131 13.8617 110.861 13.8617Z" fill="#011833"/>
<path d="M70.0361 50.1157C70.0361 53.3935 67.3623 55.9605 63.8506 55.9605C60.3787 55.9605 57.665 53.3935 57.665 50.1157C57.665 46.7983 60.3787 44.3103 63.8506 44.3103C67.3224 44.3103 70.0361 46.8378 70.0361 50.1157ZM59.7003 50.1157C59.7003 52.4062 61.6158 54.2229 63.8905 54.2229C66.1651 54.2229 68.0408 52.4062 68.0408 50.1157C68.0408 47.8251 66.1651 46.048 63.8905 46.048C61.5759 46.0875 59.7003 47.8646 59.7003 50.1157Z" fill="#011833"/>
<path d="M78.1366 46.127C76.9793 46.127 76.261 46.5614 76.261 47.3118C76.261 49.8393 82.5263 48.4965 82.5263 52.6432C82.5263 54.6968 80.6906 55.9606 78.1366 55.9606C76.3009 55.9606 74.5849 55.2102 73.3877 54.1439L74.2257 52.4853C75.4229 53.5515 76.8995 54.1439 78.1765 54.1439C79.5333 54.1439 80.3714 53.6305 80.3714 52.7617C80.3714 50.1947 74.106 51.6164 74.106 47.5487C74.106 45.5741 75.822 44.3499 78.3361 44.3499C79.8526 44.3499 81.3291 44.8238 82.4066 45.5346L81.6085 47.2328C80.2915 46.4429 79.0145 46.127 78.1366 46.127Z" fill="#011833"/>
<path d="M89.1117 44.3893H87.1562V55.921H89.1117V44.3893Z" fill="#011833"/>
<path d="M102.48 50.2342H104.196V54.4994C102.999 55.3682 101.283 56.0001 99.6868 56.0001C96.2548 56.0001 93.5811 53.4331 93.5811 50.1552C93.5811 46.8774 96.2947 44.3499 99.8065 44.3499C101.483 44.3499 103.119 44.9817 104.276 45.969L103.159 47.3908C102.281 46.5614 101.004 46.0875 99.8065 46.0875C97.4121 46.0875 95.5764 47.8647 95.5764 50.1552C95.5764 52.4458 97.452 54.2624 99.8464 54.2624C100.724 54.2624 101.682 53.9465 102.52 53.4726V50.2342H102.48Z" fill="#011833"/>
<path d="M114.173 54.2229C116.048 54.2229 117.245 53.0776 117.245 51.103V44.3499H119.201V51.103C119.201 54.1044 117.285 55.9606 114.133 55.9606C110.98 55.9606 109.064 54.1044 109.064 51.103V44.3499H111.02V51.103C111.02 53.0776 112.257 54.2229 114.173 54.2229Z" fill="#011833"/>
<path d="M146.218 53.2751H140.352L139.234 55.8816H137.199L142.347 44.3499H144.343L149.411 55.8816H147.296L146.218 53.2751ZM145.5 51.5769L143.305 46.4429L141.11 51.5769H145.5Z" fill="#011833"/>
<path d="M155.237 44.3893L161.502 52.6432V44.3893H163.418V55.8815H161.502L155.277 47.6276V55.8815H153.321V44.3893H155.237Z" fill="#011833"/>
<path d="M170.68 55.9606C169.283 55.9606 168.126 55.3682 167.248 54.3019L168.166 52.8012C168.924 53.6305 169.842 54.0649 170.64 54.0649C171.678 54.0649 172.316 53.4331 172.316 52.2483V46.0875H168.286V44.3499H174.272V52.3273C174.312 54.6573 172.955 55.9606 170.68 55.9606Z" fill="#011833"/>
<path d="M187.8 44.3893V46.1269H181.455V49.2468H187.122V50.9845H181.455V54.1439H188V55.8815H179.46V44.3893H187.8Z" fill="#011833"/>
<path d="M131.332 52.0508C132.889 51.4585 133.727 50.1552 133.727 48.2991C133.727 45.8111 132.011 44.3499 129.058 44.3499H124.349V55.8816H126.304V46.127H129.058C130.853 46.127 131.891 46.8379 131.891 48.3781C131.891 49.9578 130.853 50.7081 129.058 50.7081H127.461V52.4458H129.058C129.257 52.4458 129.417 52.4458 129.576 52.4458L131.691 55.9211H133.926L131.332 52.0508Z" fill="#011833"/>
<path d="M74.5455 0.0394287C65.0877 0.0394287 57.665 7.06905 57.665 16.0338C57.665 25.038 65.0877 32.1071 74.5455 32.1071C83.9635 32.1071 91.3462 25.038 91.3462 16.0338C91.3861 7.06905 83.9635 0.0394287 74.5455 0.0394287ZM87.3955 14.8095C86.6771 15.3229 85.879 15.6784 85.041 15.9943C84.5621 16.1523 84.0433 16.3102 83.5245 16.4287C83.6043 14.3356 83.2851 12.2425 82.6466 10.2284C82.7264 10.2284 82.7663 10.1889 82.8461 10.1889C83.4846 10.031 84.163 9.79401 84.7616 9.47807C84.9212 9.39909 85.1208 9.28061 85.2804 9.16214C86.4377 10.7813 87.1959 12.7164 87.3955 14.8095ZM84.602 8.21432C84.4823 8.3328 84.3626 8.41178 84.2029 8.49077C83.7241 8.80671 83.1255 9.04366 82.5668 9.24112C82.4869 9.28061 82.4071 9.28061 82.3273 9.32011C81.6489 7.58245 80.6912 5.96327 79.454 4.54154C79.4141 4.50205 79.3742 4.46256 79.3343 4.38358C81.4095 5.2524 83.2053 6.55565 84.602 8.21432ZM74.5455 28.6713C67.3623 28.6713 61.536 23.0239 61.536 16.0733C61.536 9.16214 67.3623 3.55424 74.5455 3.55424C75.4634 3.55424 76.3413 3.63322 77.1794 3.83068C77.7381 4.2651 78.2568 4.73901 78.7756 5.2524C79.9728 6.51616 80.9705 7.97737 81.6888 9.59655C80.771 9.8335 79.8132 9.99147 78.8554 10.11C76.3014 10.3864 73.7075 10.1889 71.1535 9.75452C73.6676 10.4259 76.2615 10.7813 78.8954 10.7418C79.9329 10.7023 80.9705 10.6233 82.0081 10.4259C82.0081 10.4259 82.0081 10.4259 82.0081 10.4654C82.7663 12.4005 83.1654 14.4936 83.1654 16.5867C82.0081 16.8631 80.8508 17.0211 79.6536 17.1396C77.8179 17.337 75.9822 17.3765 74.1465 17.258C72.3108 17.1396 70.4751 16.9421 68.6793 16.4682C70.4352 17.0211 72.2709 17.3765 74.1465 17.574C75.9822 17.7714 77.8578 17.8504 79.7334 17.7714C80.8907 17.732 82.048 17.6135 83.1654 17.416C83.0855 19.1932 82.7264 20.9703 82.0879 22.629C82.8461 20.9703 83.2851 19.1932 83.4447 17.3765C84.0832 17.258 84.6818 17.1396 85.2804 16.9421C85.9987 16.7446 86.7171 16.4682 87.4354 16.1128C87.4354 16.1128 87.4354 16.1128 87.4354 16.1523C87.4354 18.1664 86.9565 20.062 86.0785 21.7602C85.9588 21.8391 85.7992 21.9181 85.6795 21.9971C85.0809 22.3131 84.4823 22.55 83.8039 22.7475C82.4869 23.1819 81.1301 23.4188 79.7334 23.5768C76.9798 23.8927 74.1465 23.7743 71.353 23.3399C74.1066 23.9717 76.9399 24.3272 79.7733 24.1692C81.2099 24.0902 82.6067 23.9322 84.0433 23.6163C84.4025 23.5373 84.7217 23.4188 85.0809 23.3399C82.7663 26.5387 78.9353 28.6713 74.5455 28.6713Z" fill="#011833"/>
</svg>
