<svg width="104" height="80" viewBox="0 0 104 80" fill="none" xmlns="http://www.w3.org/2000/svg">
<g clip-path="url(#clip0)">
<path d="M33.0063 27.6576C30.1596 28.2947 27.396 29.0979 24.7832 30.0458C24.9402 30.7413 25.0202 31.483 25.0202 32.2493C25.0202 37.0133 21.9458 40.5739 16.8279 40.5739C11.7099 40.5739 8.59242 37.0133 8.59242 32.2493C8.59242 27.4853 11.7099 23.8784 16.8279 23.8784C20.9271 23.8784 23.7122 26.1896 24.6601 29.5564C27.1714 28.3377 29.8396 27.2729 32.6063 26.3897C30.4243 20.3577 24.7955 16 16.8309 16C6.45663 16 0 23.3891 0 32.2493C0 41.1064 6.45663 48.4985 16.8309 48.4985C27.2052 48.4985 33.6157 41.1064 33.6157 32.2493C33.6126 30.6582 33.4064 29.1164 33.0063 27.6576Z" fill="#0D1A3E"/>
<path d="M69.4965 31.366V47.8307H61.0364V30.5136L53.1118 41.0202H52.447L44.5686 30.5166V47.8338H36.1085V27.039C40.7987 26.2081 45.618 25.8634 50.2189 26.1435L52.801 29.578L54.9768 26.6728C55.0383 26.6821 55.1029 26.6913 55.1645 26.7036C60.3778 27.7069 65.1756 29.3164 69.4965 31.366Z" fill="#0D1A3E"/>
<path d="M73.4141 33.4126V47.8307H81.8742V39.4137C79.3691 37.2318 76.5439 35.2037 73.4141 33.4126Z" fill="#0D1A3E"/>
<path d="M15.2798 57.1249V59.0483V61.7627C13.9227 63.2245 12.1192 63.9969 9.93419 63.9969C5.70569 63.9969 3.29907 61.1626 3.29907 57.8111C3.29907 54.3736 5.77339 51.5546 9.69107 51.5546C12.2177 51.5546 14.1935 52.7732 15.086 54.629L13.1779 55.66C12.6455 54.4905 11.4945 53.6503 9.72492 53.6503C7.11211 53.6503 5.54874 55.4538 5.54874 57.7927C5.54874 60.0947 7.0598 61.935 9.93112 61.935C11.1867 61.935 12.3039 61.5903 13.2302 60.8025V59.0483H9.95266V57.1249H15.2798Z" fill="#0D1A3E"/>
<path d="M29.1163 63.6707V63.7907H26.7436L23.7891 59.4084H20.1792V63.7907H17.9449V51.7607H20.1792H24.3554C26.642 51.7607 28.43 53.3241 28.43 55.5922C28.43 57.2756 27.4514 58.5651 26.0234 59.116L29.1163 63.6707ZM20.1792 57.4326H24.1677C25.3187 57.4326 26.1958 56.7463 26.1958 55.6292C26.1958 54.4966 25.3187 53.8073 24.1677 53.8073H20.1792V57.4326Z" fill="#0D1A3E"/>
<path d="M30.2858 57.7773C30.2858 54.3582 32.8463 51.5576 36.6778 51.5576C40.5093 51.5576 43.0882 54.3582 43.0882 57.7773C43.0882 61.1964 40.5093 64 36.6778 64C32.8463 64 30.2858 61.1964 30.2858 57.7773ZM40.8386 57.7773C40.8386 55.4753 39.2413 53.6688 36.6808 53.6688C34.1357 53.6688 32.5385 55.4722 32.5385 57.7773C32.5385 60.0793 34.1357 61.8673 36.6808 61.8673C39.2383 61.8673 40.8386 60.0793 40.8386 57.7773Z" fill="#0D1A3E"/>
<path d="M45.2917 58.9467V51.7638H47.526V58.9467C47.526 60.9748 48.8309 61.8673 50.7236 61.8673C52.5978 61.8673 53.8872 60.9748 53.8872 58.9467V51.7638H56.1215V58.9467C56.1215 62.452 53.6811 64 50.7082 64C47.7322 64 45.2917 62.452 45.2917 58.9467Z" fill="#0D1A3E"/>
<path d="M69.6103 55.7492C69.6103 58.0512 67.8222 59.753 65.5387 59.753H61.1902V63.7907H58.9559V51.7607H61.1902H65.5387C67.8222 51.7638 69.6103 53.4657 69.6103 55.7492ZM67.376 55.7677C67.376 54.632 66.4835 53.8073 65.3325 53.8073H61.1902V57.7096H65.3325C66.4804 57.7096 67.376 56.9002 67.376 55.7677Z" fill="#0D1A3E"/>
<path d="M57.1002 23.8323C57.7465 23.9123 58.3866 24.0016 59.0206 24.1062C62.6213 24.7309 66.1481 25.7096 69.4965 26.956V16.6678H62.4644L57.1002 23.8323ZM36.1085 16.6678V25.3864C40.057 24.3678 44.1593 23.7246 48.2585 23.5307L43.1006 16.6678H36.1085ZM101.463 27.353C101.463 20.9887 96.6525 16.6709 90.1958 16.6709H73.4111V28.5686C77.3257 30.3443 80.9018 32.474 83.9331 34.8036C85.3026 35.8561 86.5705 36.9333 87.7461 38.0381L88.1093 38.3797C91.2083 41.3557 93.6088 44.4978 95.3538 47.8308H103.238V47.4338L95.9385 36.7486C99.2776 35.0098 101.463 31.6707 101.463 27.353ZM89.0879 31.006H81.8742V24.0569H89.0879C91.4453 24.0569 93.0056 25.3957 93.0056 27.5315C93.0025 29.6673 91.4453 31.006 89.0879 31.006ZM101.284 18.5697H101.352C101.432 18.5697 101.576 18.8683 101.857 19.3453H102.309C102.054 18.8929 101.807 18.4836 101.718 18.4682V18.4589C101.884 18.4005 102.143 18.2558 102.143 17.9388C102.143 17.6403 101.918 17.4157 101.49 17.4157H100.899V19.3453H101.287V18.5697H101.284ZM101.284 17.7265H101.386C101.613 17.7265 101.727 17.7942 101.727 17.9758C101.727 18.1727 101.567 18.262 101.37 18.262H101.281V17.7265H101.284ZM101.518 20.1331C102.491 20.1331 103.241 19.3884 103.241 18.4005C103.241 17.4157 102.503 16.6678 101.524 16.6678C100.515 16.6678 99.8223 17.4126 99.8223 18.4005C99.8223 19.3884 100.512 20.1331 101.518 20.1331ZM101.518 17.0341C102.263 17.0341 102.798 17.6311 102.798 18.3974C102.798 19.1637 102.266 19.7638 101.518 19.7638C100.773 19.7638 100.232 19.1637 100.232 18.3974C100.232 17.6342 100.773 17.0341 101.518 17.0341Z" fill="url(#paint0_linear)"/>
</g>
<defs>
<linearGradient id="paint0_linear" x1="48.7193" y1="11.8326" x2="144.39" y2="55.1786" gradientUnits="userSpaceOnUse">
<stop stop-color="#1059A9"/>
<stop offset="0.4959" stop-color="#1C2D5A"/>
<stop offset="1" stop-color="#0C1F40"/>
</linearGradient>
<clipPath id="clip0">
<rect width="103.241" height="80" fill="white"/>
</clipPath>
</defs>
</svg>
