<svg width="121" height="56" viewBox="0 0 121 56" fill="none" xmlns="http://www.w3.org/2000/svg">
<path d="M8.89466 55.9301V50.206L6.97904 54.3439H6.02123L4.03719 50.206V55.9301H2.7373V47.4474H4.03719L6.50013 52.7577L8.89466 47.4474H10.1945V55.9991H8.89466V55.9301Z" fill="#011833"/>
<path d="M26.8197 55.1033C26.204 55.655 25.5198 55.9998 24.562 55.9998C23.6726 55.9998 22.9201 55.655 22.3727 55.1033C21.5518 54.2757 21.5518 53.3102 21.5518 51.655C21.5518 49.9998 21.5518 49.1033 22.3727 48.2067C22.9201 47.586 23.6726 47.3102 24.562 47.3102C25.4514 47.3102 26.204 47.655 26.8197 48.2067C27.6407 49.0343 27.6407 49.9998 27.6407 51.655C27.6407 53.3102 27.6407 54.2757 26.8197 55.1033ZM25.8619 49.0343C25.5882 48.6895 25.1093 48.4826 24.6304 48.4826C24.1515 48.4826 23.6726 48.6895 23.399 49.0343C22.9885 49.5171 22.9201 49.9998 22.9201 51.655C22.9201 53.3791 22.9885 53.8619 23.399 54.2757C23.6726 54.6205 24.1515 54.8274 24.6304 54.8274C25.1093 54.8274 25.5882 54.6205 25.8619 54.2757C26.2724 53.7929 26.3408 53.3102 26.3408 51.655C26.3408 49.9998 26.2724 49.5171 25.8619 49.0343Z" fill="#011833"/>
<path d="M42.4178 55.931H38.9971V47.4482H42.281C43.8545 47.4482 44.8124 48.3448 44.8124 49.7931C44.8124 50.6896 44.265 51.3793 43.6493 51.5862C44.3334 51.862 44.9492 52.4827 44.9492 53.5861C45.0176 55.1034 43.923 55.931 42.4178 55.931ZM42.2126 48.5517H40.297V50.9655H42.2126C43.0336 50.9655 43.5809 50.5517 43.5809 49.7241C43.5809 49.0344 43.0336 48.5517 42.2126 48.5517ZM42.3494 52.2068H40.3654V54.8275H42.3494C43.2388 54.8275 43.7177 54.2758 43.7177 53.5172C43.7177 52.7586 43.2388 52.2068 42.3494 52.2068Z" fill="#011833"/>
<path d="M56.375 55.931V47.4482H57.6749V55.9999H56.375V55.931Z" fill="#011833"/>
<path d="M69.374 55.931V47.4482H70.6739V54.8275H74.7104V55.9999H69.374V55.931Z" fill="#011833"/>
<path d="M85.6562 55.931V47.4482H86.9561V55.9999H85.6562V55.931Z" fill="#011833"/>
<path d="M101.528 48.5517V55.931H100.228V48.5517H97.9023V47.3793H103.854V48.5517H101.528Z" fill="#011833"/>
<path d="M117.538 52.4137V55.931H116.238V52.4137L113.707 47.3793H115.075L116.854 51.1034L118.633 47.3793H120.001L117.538 52.4137Z" fill="#011833"/>
<path d="M8.89466 55.9301V50.206L6.97904 54.3439H6.02123L4.03719 50.206V55.9301H2.7373V47.4474H4.03719L6.50013 52.7577L8.89466 47.4474H10.1945V55.9991H8.89466V55.9301Z" fill="#011833"/>
<path d="M26.8197 55.1033C26.204 55.655 25.5198 55.9998 24.562 55.9998C23.6726 55.9998 22.9201 55.655 22.3727 55.1033C21.5518 54.2757 21.5518 53.3102 21.5518 51.655C21.5518 49.9998 21.5518 49.1033 22.3727 48.2067C22.9201 47.586 23.6726 47.3102 24.562 47.3102C25.4514 47.3102 26.204 47.655 26.8197 48.2067C27.6407 49.0343 27.6407 49.9998 27.6407 51.655C27.6407 53.3102 27.6407 54.2757 26.8197 55.1033ZM25.8619 49.0343C25.5882 48.6895 25.1093 48.4826 24.6304 48.4826C24.1515 48.4826 23.6726 48.6895 23.399 49.0343C22.9885 49.5171 22.9201 49.9998 22.9201 51.655C22.9201 53.3791 22.9885 53.8619 23.399 54.2757C23.6726 54.6205 24.1515 54.8274 24.6304 54.8274C25.1093 54.8274 25.5882 54.6205 25.8619 54.2757C26.2724 53.7929 26.3408 53.3102 26.3408 51.655C26.3408 49.9998 26.2724 49.5171 25.8619 49.0343Z" fill="#011833"/>
<path d="M42.4178 55.931H38.9971V47.4482H42.281C43.8545 47.4482 44.8124 48.3448 44.8124 49.7931C44.8124 50.6896 44.265 51.3793 43.6493 51.5862C44.3334 51.862 44.9492 52.4827 44.9492 53.5861C45.0176 55.1034 43.923 55.931 42.4178 55.931ZM42.2126 48.5517H40.297V50.9655H42.2126C43.0336 50.9655 43.5809 50.5517 43.5809 49.7241C43.5809 49.0344 43.0336 48.5517 42.2126 48.5517ZM42.3494 52.2068H40.3654V54.8275H42.3494C43.2388 54.8275 43.7177 54.2758 43.7177 53.5172C43.7177 52.7586 43.2388 52.2068 42.3494 52.2068Z" fill="#011833"/>
<path d="M56.375 55.931V47.4482H57.6749V55.9999H56.375V55.931Z" fill="#011833"/>
<path d="M69.374 55.931V47.4482H70.6739V54.8275H74.7104V55.9999H69.374V55.931Z" fill="#011833"/>
<path d="M85.6562 55.931V47.4482H86.9561V55.9999H85.6562V55.931Z" fill="#011833"/>
<path d="M101.528 48.5517V55.931H100.228V48.5517H97.9023V47.3793H103.854V48.5517H101.528Z" fill="#011833"/>
<path d="M117.538 52.4137V55.931H116.238V52.4137L113.707 47.3793H115.075L116.854 51.1034L118.633 47.3793H120.001L117.538 52.4137Z" fill="#011833"/>
<path d="M8.89466 55.9301V50.206L6.97904 54.3439H6.02123L4.03719 50.206V55.9301H2.7373V47.4474H4.03719L6.50013 52.7577L8.89466 47.4474H10.1945V55.9991H8.89466V55.9301Z" fill="#011833"/>
<path d="M26.8197 55.1033C26.204 55.655 25.5198 55.9998 24.562 55.9998C23.6726 55.9998 22.9201 55.655 22.3727 55.1033C21.5518 54.2757 21.5518 53.3102 21.5518 51.655C21.5518 49.9998 21.5518 49.1033 22.3727 48.2067C22.9201 47.586 23.6726 47.3102 24.562 47.3102C25.4514 47.3102 26.204 47.655 26.8197 48.2067C27.6407 49.0343 27.6407 49.9998 27.6407 51.655C27.6407 53.3102 27.6407 54.2757 26.8197 55.1033ZM25.8619 49.0343C25.5882 48.6895 25.1093 48.4826 24.6304 48.4826C24.1515 48.4826 23.6726 48.6895 23.399 49.0343C22.9885 49.5171 22.9201 49.9998 22.9201 51.655C22.9201 53.3791 22.9885 53.8619 23.399 54.2757C23.6726 54.6205 24.1515 54.8274 24.6304 54.8274C25.1093 54.8274 25.5882 54.6205 25.8619 54.2757C26.2724 53.7929 26.3408 53.3102 26.3408 51.655C26.3408 49.9998 26.2724 49.5171 25.8619 49.0343Z" fill="#011833"/>
<path d="M42.4178 55.931H38.9971V47.4482H42.281C43.8545 47.4482 44.8124 48.3448 44.8124 49.7931C44.8124 50.6896 44.265 51.3793 43.6493 51.5862C44.3334 51.862 44.9492 52.4827 44.9492 53.5861C45.0176 55.1034 43.923 55.931 42.4178 55.931ZM42.2126 48.5517H40.297V50.9655H42.2126C43.0336 50.9655 43.5809 50.5517 43.5809 49.7241C43.5809 49.0344 43.0336 48.5517 42.2126 48.5517ZM42.3494 52.2068H40.3654V54.8275H42.3494C43.2388 54.8275 43.7177 54.2758 43.7177 53.5172C43.7177 52.7586 43.2388 52.2068 42.3494 52.2068Z" fill="#011833"/>
<path d="M56.375 55.931V47.4482H57.6749V55.9999H56.375V55.931Z" fill="#011833"/>
<path d="M69.374 55.931V47.4482H70.6739V54.8275H74.7104V55.9999H69.374V55.931Z" fill="#011833"/>
<path d="M85.6562 55.931V47.4482H86.9561V55.9999H85.6562V55.931Z" fill="#011833"/>
<path d="M101.528 48.5517V55.931H100.228V48.5517H97.9023V47.3793H103.854V48.5517H101.528Z" fill="#011833"/>
<path d="M117.538 52.4137V55.931H116.238V52.4137L113.707 47.3793H115.075L116.854 51.1034L118.633 47.3793H120.001L117.538 52.4137Z" fill="#011833"/>
<path d="M8.89466 55.9301V50.206L6.97904 54.3439H6.02123L4.03719 50.206V55.9301H2.7373V47.4474H4.03719L6.50013 52.7577L8.89466 47.4474H10.1945V55.9991H8.89466V55.9301Z" fill="#011833"/>
<path d="M26.8197 55.1033C26.204 55.655 25.5198 55.9998 24.562 55.9998C23.6726 55.9998 22.9201 55.655 22.3727 55.1033C21.5518 54.2757 21.5518 53.3102 21.5518 51.655C21.5518 49.9998 21.5518 49.1033 22.3727 48.2067C22.9201 47.586 23.6726 47.3102 24.562 47.3102C25.4514 47.3102 26.204 47.655 26.8197 48.2067C27.6407 49.0343 27.6407 49.9998 27.6407 51.655C27.6407 53.3102 27.6407 54.2757 26.8197 55.1033ZM25.8619 49.0343C25.5882 48.6895 25.1093 48.4826 24.6304 48.4826C24.1515 48.4826 23.6726 48.6895 23.399 49.0343C22.9885 49.5171 22.9201 49.9998 22.9201 51.655C22.9201 53.3791 22.9885 53.8619 23.399 54.2757C23.6726 54.6205 24.1515 54.8274 24.6304 54.8274C25.1093 54.8274 25.5882 54.6205 25.8619 54.2757C26.2724 53.7929 26.3408 53.3102 26.3408 51.655C26.3408 49.9998 26.2724 49.5171 25.8619 49.0343Z" fill="#011833"/>
<path d="M42.4178 55.931H38.9971V47.4482H42.281C43.8545 47.4482 44.8124 48.3448 44.8124 49.7931C44.8124 50.6896 44.265 51.3793 43.6493 51.5862C44.3334 51.862 44.9492 52.4827 44.9492 53.5861C45.0176 55.1034 43.923 55.931 42.4178 55.931ZM42.2126 48.5517H40.297V50.9655H42.2126C43.0336 50.9655 43.5809 50.5517 43.5809 49.7241C43.5809 49.0344 43.0336 48.5517 42.2126 48.5517ZM42.3494 52.2068H40.3654V54.8275H42.3494C43.2388 54.8275 43.7177 54.2758 43.7177 53.5172C43.7177 52.7586 43.2388 52.2068 42.3494 52.2068Z" fill="#011833"/>
<path d="M56.375 55.931V47.4482H57.6749V55.9999H56.375V55.931Z" fill="#011833"/>
<path d="M69.374 55.931V47.4482H70.6739V54.8275H74.7104V55.9999H69.374V55.931Z" fill="#011833"/>
<path d="M85.6562 55.931V47.4482H86.9561V55.9999H85.6562V55.931Z" fill="#011833"/>
<path d="M101.528 48.5517V55.931H100.228V48.5517H97.9023V47.3793H103.854V48.5517H101.528Z" fill="#011833"/>
<path d="M117.538 52.4137V55.931H116.238V52.4137L113.707 47.3793H115.075L116.854 51.1034L118.633 47.3793H120.001L117.538 52.4137Z" fill="#011833"/>
<path d="M8.89466 55.9301V50.206L6.97904 54.3439H6.02123L4.03719 50.206V55.9301H2.7373V47.4474H4.03719L6.50013 52.7577L8.89466 47.4474H10.1945V55.9991H8.89466V55.9301Z" fill="#011833"/>
<path d="M26.8197 55.1033C26.204 55.655 25.5198 55.9998 24.562 55.9998C23.6726 55.9998 22.9201 55.655 22.3727 55.1033C21.5518 54.2757 21.5518 53.3102 21.5518 51.655C21.5518 49.9998 21.5518 49.1033 22.3727 48.2067C22.9201 47.586 23.6726 47.3102 24.562 47.3102C25.4514 47.3102 26.204 47.655 26.8197 48.2067C27.6407 49.0343 27.6407 49.9998 27.6407 51.655C27.6407 53.3102 27.6407 54.2757 26.8197 55.1033ZM25.8619 49.0343C25.5882 48.6895 25.1093 48.4826 24.6304 48.4826C24.1515 48.4826 23.6726 48.6895 23.399 49.0343C22.9885 49.5171 22.9201 49.9998 22.9201 51.655C22.9201 53.3791 22.9885 53.8619 23.399 54.2757C23.6726 54.6205 24.1515 54.8274 24.6304 54.8274C25.1093 54.8274 25.5882 54.6205 25.8619 54.2757C26.2724 53.7929 26.3408 53.3102 26.3408 51.655C26.3408 49.9998 26.2724 49.5171 25.8619 49.0343Z" fill="#011833"/>
<path d="M42.4178 55.931H38.9971V47.4482H42.281C43.8545 47.4482 44.8124 48.3448 44.8124 49.7931C44.8124 50.6896 44.265 51.3793 43.6493 51.5862C44.3334 51.862 44.9492 52.4827 44.9492 53.5861C45.0176 55.1034 43.923 55.931 42.4178 55.931ZM42.2126 48.5517H40.297V50.9655H42.2126C43.0336 50.9655 43.5809 50.5517 43.5809 49.7241C43.5809 49.0344 43.0336 48.5517 42.2126 48.5517ZM42.3494 52.2068H40.3654V54.8275H42.3494C43.2388 54.8275 43.7177 54.2758 43.7177 53.5172C43.7177 52.7586 43.2388 52.2068 42.3494 52.2068Z" fill="#011833"/>
<path d="M56.375 55.931V47.4482H57.6749V55.9999H56.375V55.931Z" fill="#011833"/>
<path d="M69.374 55.931V47.4482H70.6739V54.8275H74.7104V55.9999H69.374V55.931Z" fill="#011833"/>
<path d="M85.6562 55.931V47.4482H86.9561V55.9999H85.6562V55.931Z" fill="#011833"/>
<path d="M101.528 48.5517V55.931H100.228V48.5517H97.9023V47.3793H103.854V48.5517H101.528Z" fill="#011833"/>
<path d="M117.538 52.4137V55.931H116.238V52.4137L113.707 47.3793H115.075L116.854 51.1034L118.633 47.3793H120.001L117.538 52.4137Z" fill="#011833"/>
<path d="M8.89466 55.9301V50.206L6.97904 54.3439H6.02123L4.03719 50.206V55.9301H2.7373V47.4474H4.03719L6.50013 52.7577L8.89466 47.4474H10.1945V55.9991H8.89466V55.9301Z" fill="#011833"/>
<path d="M26.8197 55.1033C26.204 55.655 25.5198 55.9998 24.562 55.9998C23.6726 55.9998 22.9201 55.655 22.3727 55.1033C21.5518 54.2757 21.5518 53.3102 21.5518 51.655C21.5518 49.9998 21.5518 49.1033 22.3727 48.2067C22.9201 47.586 23.6726 47.3102 24.562 47.3102C25.4514 47.3102 26.204 47.655 26.8197 48.2067C27.6407 49.0343 27.6407 49.9998 27.6407 51.655C27.6407 53.3102 27.6407 54.2757 26.8197 55.1033ZM25.8619 49.0343C25.5882 48.6895 25.1093 48.4826 24.6304 48.4826C24.1515 48.4826 23.6726 48.6895 23.399 49.0343C22.9885 49.5171 22.9201 49.9998 22.9201 51.655C22.9201 53.3791 22.9885 53.8619 23.399 54.2757C23.6726 54.6205 24.1515 54.8274 24.6304 54.8274C25.1093 54.8274 25.5882 54.6205 25.8619 54.2757C26.2724 53.7929 26.3408 53.3102 26.3408 51.655C26.3408 49.9998 26.2724 49.5171 25.8619 49.0343Z" fill="#011833"/>
<path d="M42.4178 55.931H38.9971V47.4482H42.281C43.8545 47.4482 44.8124 48.3448 44.8124 49.7931C44.8124 50.6896 44.265 51.3793 43.6493 51.5862C44.3334 51.862 44.9492 52.4827 44.9492 53.5861C45.0176 55.1034 43.923 55.931 42.4178 55.931ZM42.2126 48.5517H40.297V50.9655H42.2126C43.0336 50.9655 43.5809 50.5517 43.5809 49.7241C43.5809 49.0344 43.0336 48.5517 42.2126 48.5517ZM42.3494 52.2068H40.3654V54.8275H42.3494C43.2388 54.8275 43.7177 54.2758 43.7177 53.5172C43.7177 52.7586 43.2388 52.2068 42.3494 52.2068Z" fill="#011833"/>
<path d="M56.375 55.931V47.4482H57.6749V55.9999H56.375V55.931Z" fill="#011833"/>
<path d="M69.374 55.931V47.4482H70.6739V54.8275H74.7104V55.9999H69.374V55.931Z" fill="#011833"/>
<path d="M85.6562 55.931V47.4482H86.9561V55.9999H85.6562V55.931Z" fill="#011833"/>
<path d="M101.528 48.5517V55.931H100.228V48.5517H97.9023V47.3793H103.854V48.5517H101.528Z" fill="#011833"/>
<path d="M117.538 52.4137V55.931H116.238V52.4137L113.707 47.3793H115.075L116.854 51.1034L118.633 47.3793H120.001L117.538 52.4137Z" fill="#011833"/>
<path d="M8.89466 55.9301V50.206L6.97904 54.3439H6.02123L4.03719 50.206V55.9301H2.7373V47.4474H4.03719L6.50013 52.7577L8.89466 47.4474H10.1945V55.9991H8.89466V55.9301Z" fill="#011833"/>
<path d="M26.8197 55.1033C26.204 55.655 25.5198 55.9998 24.562 55.9998C23.6726 55.9998 22.9201 55.655 22.3727 55.1033C21.5518 54.2757 21.5518 53.3102 21.5518 51.655C21.5518 49.9998 21.5518 49.1033 22.3727 48.2067C22.9201 47.586 23.6726 47.3102 24.562 47.3102C25.4514 47.3102 26.204 47.655 26.8197 48.2067C27.6407 49.0343 27.6407 49.9998 27.6407 51.655C27.6407 53.3102 27.6407 54.2757 26.8197 55.1033ZM25.8619 49.0343C25.5882 48.6895 25.1093 48.4826 24.6304 48.4826C24.1515 48.4826 23.6726 48.6895 23.399 49.0343C22.9885 49.5171 22.9201 49.9998 22.9201 51.655C22.9201 53.3791 22.9885 53.8619 23.399 54.2757C23.6726 54.6205 24.1515 54.8274 24.6304 54.8274C25.1093 54.8274 25.5882 54.6205 25.8619 54.2757C26.2724 53.7929 26.3408 53.3102 26.3408 51.655C26.3408 49.9998 26.2724 49.5171 25.8619 49.0343Z" fill="#011833"/>
<path d="M42.4178 55.931H38.9971V47.4482H42.281C43.8545 47.4482 44.8124 48.3448 44.8124 49.7931C44.8124 50.6896 44.265 51.3793 43.6493 51.5862C44.3334 51.862 44.9492 52.4827 44.9492 53.5861C45.0176 55.1034 43.923 55.931 42.4178 55.931ZM42.2126 48.5517H40.297V50.9655H42.2126C43.0336 50.9655 43.5809 50.5517 43.5809 49.7241C43.5809 49.0344 43.0336 48.5517 42.2126 48.5517ZM42.3494 52.2068H40.3654V54.8275H42.3494C43.2388 54.8275 43.7177 54.2758 43.7177 53.5172C43.7177 52.7586 43.2388 52.2068 42.3494 52.2068Z" fill="#011833"/>
<path d="M56.375 55.931V47.4482H57.6749V55.9999H56.375V55.931Z" fill="#011833"/>
<path d="M69.374 55.931V47.4482H70.6739V54.8275H74.7104V55.9999H69.374V55.931Z" fill="#011833"/>
<path d="M85.6562 55.931V47.4482H86.9561V55.9999H85.6562V55.931Z" fill="#011833"/>
<path d="M101.528 48.5517V55.931H100.228V48.5517H97.9023V47.3793H103.854V48.5517H101.528Z" fill="#011833"/>
<path d="M117.538 52.4137V55.931H116.238V52.4137L113.707 47.3793H115.075L116.854 51.1034L118.633 47.3793H120.001L117.538 52.4137Z" fill="#011833"/>
<path d="M8.89466 55.9301V50.206L6.97904 54.3439H6.02123L4.03719 50.206V55.9301H2.7373V47.4474H4.03719L6.50013 52.7577L8.89466 47.4474H10.1945V55.9991H8.89466V55.9301Z" fill="#011833"/>
<path d="M26.8197 55.1033C26.204 55.655 25.5198 55.9998 24.562 55.9998C23.6726 55.9998 22.9201 55.655 22.3727 55.1033C21.5518 54.2757 21.5518 53.3102 21.5518 51.655C21.5518 49.9998 21.5518 49.1033 22.3727 48.2067C22.9201 47.586 23.6726 47.3102 24.562 47.3102C25.4514 47.3102 26.204 47.655 26.8197 48.2067C27.6407 49.0343 27.6407 49.9998 27.6407 51.655C27.6407 53.3102 27.6407 54.2757 26.8197 55.1033ZM25.8619 49.0343C25.5882 48.6895 25.1093 48.4826 24.6304 48.4826C24.1515 48.4826 23.6726 48.6895 23.399 49.0343C22.9885 49.5171 22.9201 49.9998 22.9201 51.655C22.9201 53.3791 22.9885 53.8619 23.399 54.2757C23.6726 54.6205 24.1515 54.8274 24.6304 54.8274C25.1093 54.8274 25.5882 54.6205 25.8619 54.2757C26.2724 53.7929 26.3408 53.3102 26.3408 51.655C26.3408 49.9998 26.2724 49.5171 25.8619 49.0343Z" fill="#011833"/>
<path d="M42.4178 55.931H38.9971V47.4482H42.281C43.8545 47.4482 44.8124 48.3448 44.8124 49.7931C44.8124 50.6896 44.265 51.3793 43.6493 51.5862C44.3334 51.862 44.9492 52.4827 44.9492 53.5861C45.0176 55.1034 43.923 55.931 42.4178 55.931ZM42.2126 48.5517H40.297V50.9655H42.2126C43.0336 50.9655 43.5809 50.5517 43.5809 49.7241C43.5809 49.0344 43.0336 48.5517 42.2126 48.5517ZM42.3494 52.2068H40.3654V54.8275H42.3494C43.2388 54.8275 43.7177 54.2758 43.7177 53.5172C43.7177 52.7586 43.2388 52.2068 42.3494 52.2068Z" fill="#011833"/>
<path d="M56.375 55.931V47.4482H57.6749V55.9999H56.375V55.931Z" fill="#011833"/>
<path d="M69.374 55.931V47.4482H70.6739V54.8275H74.7104V55.9999H69.374V55.931Z" fill="#011833"/>
<path d="M85.6562 55.931V47.4482H86.9561V55.9999H85.6562V55.931Z" fill="#011833"/>
<path d="M101.528 48.5517V55.931H100.228V48.5517H97.9023V47.3793H103.854V48.5517H101.528Z" fill="#011833"/>
<path d="M117.538 52.4137V55.931H116.238V52.4137L113.707 47.3793H115.075L116.854 51.1034L118.633 47.3793H120.001L117.538 52.4137Z" fill="#011833"/>
<path d="M7.52566 35.5861H0L5.26796 2.62073H11.5621L19.7035 22.3448L27.7765 2.62073H34.0707L39.3387 35.5861H31.813L29.2132 15.931L21.0034 35.5861H18.3352L10.1254 15.931L7.52566 35.5861Z" fill="#011833"/>
<path d="M45.2227 7.10342C44.4017 6.27584 43.9912 5.31032 43.9912 4.13791C43.9912 2.96551 44.4017 1.99999 45.2227 1.17241C45.9752 0.413791 47.0015 0 48.0961 0C49.2592 0 50.217 0.413791 51.038 1.24137C51.8589 2.06896 52.2694 3.03447 52.2694 4.20688C52.2694 5.37929 51.8589 6.3448 51.038 7.17238C50.217 7.86204 49.2592 8.27583 48.0961 8.27583C47.0015 8.27583 45.9752 7.86204 45.2227 7.10342ZM44.6069 13.5172H51.6537V35.5171H44.6069V13.5172Z" fill="#011833"/>
<path d="M74.7782 1.86206C79.9093 1.86206 84.1511 3.44826 87.435 6.62066C90.8558 9.93099 92.4977 14.0689 92.4977 19.0344C92.4977 23.9309 90.7873 28.0689 87.435 31.3792C84.1511 34.6206 79.9093 36.2068 74.7782 36.2068C69.6471 36.2068 65.3369 34.6206 62.053 31.3792C60.4795 29.8619 59.1796 28.0689 58.2902 25.9309C57.4008 23.793 56.9219 21.5172 56.9219 19.1723C56.9219 16.8965 57.4008 14.6206 58.2902 12.3448C59.248 10.0689 60.411 8.20686 61.9162 6.68963C65.2001 3.51723 69.4418 1.86206 74.7782 1.86206ZM74.7098 8.89652C71.7679 8.89652 69.4418 9.86203 67.5262 11.7241C65.6106 13.5862 64.6528 16.0689 64.6528 19.1723C64.6528 22.1378 65.679 24.6206 67.663 26.5516C69.5787 28.3447 71.9048 29.2413 74.6414 29.2413C77.5832 29.2413 80.0462 28.2757 81.8934 26.4137C83.809 24.5516 84.7668 22.1378 84.7668 19.0344C84.7668 15.9999 83.809 13.5172 81.8934 11.6551C79.9778 9.86203 77.5832 8.89652 74.7098 8.89652Z" fill="#011833"/>
<path d="M118.358 5.10343L115.006 10.6206C113.295 9.03444 111.448 8.27583 109.532 8.27583C108.096 8.27583 107.001 8.62065 106.317 9.37927C105.769 9.93099 105.496 10.6206 105.496 11.4482C105.496 12.2068 105.769 12.8275 106.248 13.2413C106.385 13.3793 106.59 13.5172 106.727 13.5861C106.864 13.7241 107.138 13.793 107.411 13.931C107.685 14.0689 107.959 14.1379 108.164 14.2758C108.369 14.3448 108.711 14.4827 109.19 14.6896C109.669 14.8965 110.08 15.0344 110.353 15.1034L112.816 16.0689C114.869 16.8275 116.374 17.7241 117.263 18.6206C118.837 20.1378 119.658 22.2068 119.658 24.7585C119.658 28.2068 118.7 30.8964 116.784 32.8964C114.663 35.1033 111.585 36.2757 107.548 36.2757C105.085 36.2757 102.896 35.793 101.049 34.8964C99.4069 34.0688 97.8333 32.8964 96.2598 31.3102L100.159 25.862C101.254 26.9654 102.28 27.793 103.17 28.4137C104.47 29.1723 105.838 29.5861 107.275 29.5861C108.711 29.5861 109.806 29.2413 110.695 28.4826C111.448 27.793 111.858 26.9654 111.858 25.793C111.858 24.8964 111.516 24.0689 110.764 23.4482C110.148 22.9654 108.917 22.3447 106.933 21.6551L104.264 20.6896C102.143 19.9309 100.638 19.0344 99.6805 18.0689C98.3806 16.6896 97.6965 14.7586 97.6965 12.3448C97.6965 9.37927 98.6543 6.89652 100.57 4.96549C102.554 2.9655 105.222 1.93102 108.643 1.93102C112.269 1.86206 115.484 2.9655 118.358 5.10343Z" fill="#011833"/>
</svg>
