<svg width="364" height="168" viewBox="0 0 364 168" fill="none" xmlns="http://www.w3.org/2000/svg">
<path d="M116.371 40.8017C106.334 43.0313 96.5906 45.8426 87.3786 49.1602C87.932 51.5945 88.2141 54.1904 88.2141 56.8724C88.2141 73.5464 77.3745 86.0088 59.3302 86.0088C41.2859 86.0088 30.2944 73.5464 30.2944 56.8724C30.2944 40.1985 41.2859 27.5745 59.3302 27.5745C73.783 27.5745 83.6026 35.6638 86.9446 47.4476C95.7985 43.1821 105.206 39.4552 114.96 36.3639C107.267 15.2522 87.422 0 59.3411 0C22.7642 0 0 25.8619 0 56.8724C0 87.8722 22.7642 113.745 59.3411 113.745C95.9179 113.745 118.519 87.8722 118.519 56.8724C118.509 51.3037 117.782 45.9073 116.371 40.8017Z" fill="white"/>
<path d="M245.025 53.7811V111.408H215.197V50.7975L187.257 87.5707H184.914L157.136 50.8083V111.418H127.309V38.6367C143.845 35.7284 160.836 34.5221 177.058 35.5022L186.161 47.523L193.833 37.3549C194.05 37.3872 194.277 37.4195 194.495 37.4626C212.875 40.9741 229.791 46.6075 245.025 53.7811Z" fill="white"/>
<path d="M258.836 60.944V111.408H288.664V81.9481C279.832 74.3112 269.871 67.2129 258.836 60.944Z" fill="white"/>
<path d="M53.8716 143.937V150.669V160.169C49.0866 165.286 42.7282 167.989 35.0244 167.989C20.1159 167.989 11.6309 158.069 11.6309 146.339C11.6309 134.307 20.3546 124.441 34.1672 124.441C43.0754 124.441 50.0414 128.706 53.188 135.201L46.4608 138.81C44.5836 134.717 40.5256 131.776 34.2866 131.776C25.0746 131.776 19.5625 138.088 19.5625 146.274C19.5625 154.331 24.8901 160.772 35.0136 160.772C39.4405 160.772 43.3793 159.566 46.6452 156.809V150.669H35.0895V143.937H53.8716Z" fill="white"/>
<path d="M102.657 166.847V167.267H94.2909L83.8745 151.929H71.1469V167.267H63.2695V125.163H71.1469H85.871C93.9329 125.163 100.237 130.634 100.237 138.573C100.237 144.465 96.7865 148.978 91.7519 150.906L102.657 166.847ZM71.1469 145.014H85.2091C89.2672 145.014 92.3596 142.612 92.3596 138.702C92.3596 134.738 89.2672 132.325 85.2091 132.325H71.1469V145.014Z" fill="white"/>
<path d="M106.777 146.22C106.777 134.254 115.805 124.452 129.314 124.452C142.823 124.452 151.915 134.254 151.915 146.22C151.915 158.187 142.823 168 129.314 168C115.805 168 106.777 158.187 106.777 146.22ZM143.984 146.22C143.984 138.164 138.352 131.841 129.325 131.841C120.351 131.841 114.72 138.153 114.72 146.22C114.72 154.277 120.351 160.535 129.325 160.535C138.341 160.535 143.984 154.277 143.984 146.22Z" fill="white"/>
<path d="M159.684 150.314V125.173H167.561V150.314C167.561 157.412 172.162 160.536 178.835 160.536C185.443 160.536 189.989 157.412 189.989 150.314V125.173H197.866V150.314C197.866 162.582 189.262 168 178.78 168C168.288 168 159.684 162.582 159.684 150.314Z" fill="white"/>
<path d="M245.425 139.122C245.425 147.179 239.12 153.136 231.069 153.136H215.738V167.267H207.86V125.163H215.738H231.069C239.12 125.173 245.425 131.13 245.425 139.122ZM237.547 139.187C237.547 135.212 234.4 132.325 230.342 132.325H215.738V145.983H230.342C234.39 145.983 237.547 143.151 237.547 139.187Z" fill="white"/>
<path d="M201.319 27.413C203.598 27.6931 205.855 28.0055 208.09 28.3717C220.785 30.5583 233.22 33.9835 245.025 38.3459V2.33746H220.232L201.319 27.413ZM127.309 2.33746V32.8525C141.23 29.2872 155.693 27.036 170.146 26.3575L151.961 2.33746H127.309ZM357.729 39.7354C357.729 17.4604 340.769 2.34823 318.005 2.34823H258.827V43.9901C272.629 50.2051 285.237 57.6588 295.924 65.8127C300.753 69.4965 305.223 73.2665 309.368 77.1334L310.648 78.329C321.575 88.7448 330.038 99.7423 336.19 111.408H363.989V110.018L338.252 72.6202C350.025 66.5344 357.729 54.8475 357.729 39.7354ZM314.099 52.5209H288.665V28.1993H314.099C322.41 28.1993 327.912 32.8849 327.912 40.3601C327.901 47.8354 322.41 52.5209 314.099 52.5209ZM357.099 8.99412H357.338C357.62 8.99412 358.13 10.0389 359.117 11.7085H360.712C359.812 10.1251 358.944 8.69253 358.629 8.63867V8.60636C359.215 8.4017 360.126 7.89545 360.126 6.78601C360.126 5.74119 359.334 4.95489 357.826 4.95489H355.743V11.7085H357.11V8.99412H357.099ZM357.099 6.04279H357.457C358.26 6.04279 358.662 6.27976 358.662 6.91526C358.662 7.60463 358.097 7.91699 357.403 7.91699H357.088V6.04279H357.099ZM357.924 14.4659C361.353 14.4659 364 11.8593 364 8.4017C364 4.95489 361.396 2.33746 357.946 2.33746C354.387 2.33746 351.945 4.94412 351.945 8.4017C351.945 11.8593 354.376 14.4659 357.924 14.4659ZM357.924 3.61925C360.55 3.61925 362.438 5.70888 362.438 8.39093C362.438 11.073 360.561 13.1734 357.924 13.1734C355.298 13.1734 353.388 11.073 353.388 8.39093C353.388 5.71965 355.298 3.61925 357.924 3.61925Z" fill="white"/>
</svg>
