<svg width="104" height="48" viewBox="0 0 104 48" fill="none" xmlns="http://www.w3.org/2000/svg">
<path d="M33.0063 11.6576C30.1596 12.2947 27.396 13.0979 24.7832 14.0458C24.9402 14.7413 25.0202 15.483 25.0202 16.2493C25.0202 21.0133 21.9458 24.5739 16.8279 24.5739C11.7099 24.5739 8.59242 21.0133 8.59242 16.2493C8.59242 11.4853 11.7099 7.87842 16.8279 7.87842C20.9271 7.87842 23.7122 10.1896 24.6601 13.5564C27.1714 12.3377 29.8396 11.2729 32.6063 10.3897C30.4243 4.35775 24.7955 -1.52588e-05 16.8309 -1.52588e-05C6.45663 -1.52588e-05 0 7.3891 0 16.2493C0 25.1064 6.45663 32.4985 16.8309 32.4985C27.2052 32.4985 33.6157 25.1064 33.6157 16.2493C33.6126 14.6582 33.4064 13.1164 33.0063 11.6576Z" fill="#0D1A3E"/>
<path d="M69.4965 15.366V31.8307H61.0364V14.5136L53.1118 25.0202H52.447L44.5686 14.5166V31.8338H36.1085V11.039C40.7987 10.2081 45.618 9.86344 50.2189 10.1435L52.801 13.578L54.9768 10.6728C55.0383 10.6821 55.1029 10.6913 55.1645 10.7036C60.3778 11.7069 65.1756 13.3164 69.4965 15.366Z" fill="#0D1A3E"/>
<path d="M73.4141 17.4126V31.8307H81.8742V23.4137C79.3691 21.2318 76.5439 19.2037 73.4141 17.4126Z" fill="#0D1A3E"/>
<path d="M15.2798 41.1249V43.0483V45.7627C13.9227 47.2245 12.1192 47.9969 9.93419 47.9969C5.70569 47.9969 3.29907 45.1626 3.29907 41.8111C3.29907 38.3736 5.77339 35.5546 9.69107 35.5546C12.2177 35.5546 14.1935 36.7732 15.086 38.629L13.1779 39.66C12.6455 38.4905 11.4945 37.6503 9.72492 37.6503C7.11211 37.6503 5.54874 39.4538 5.54874 41.7927C5.54874 44.0947 7.0598 45.935 9.93112 45.935C11.1867 45.935 12.3039 45.5903 13.2302 44.8025V43.0483H9.95266V41.1249H15.2798Z" fill="#0D1A3E"/>
<path d="M29.1163 47.6707V47.7907H26.7436L23.7891 43.4084H20.1792V47.7907H17.9449V35.7607H20.1792H24.3554C26.642 35.7607 28.43 37.3241 28.43 39.5922C28.43 41.2756 27.4514 42.5651 26.0234 43.116L29.1163 47.6707ZM20.1792 41.4326H24.1677C25.3187 41.4326 26.1958 40.7463 26.1958 39.6292C26.1958 38.4966 25.3187 37.8073 24.1677 37.8073H20.1792V41.4326Z" fill="#0D1A3E"/>
<path d="M30.2858 41.7773C30.2858 38.3582 32.8463 35.5576 36.6778 35.5576C40.5093 35.5576 43.0882 38.3582 43.0882 41.7773C43.0882 45.1964 40.5093 48 36.6778 48C32.8463 48 30.2858 45.1964 30.2858 41.7773ZM40.8386 41.7773C40.8386 39.4753 39.2413 37.6688 36.6808 37.6688C34.1357 37.6688 32.5385 39.4722 32.5385 41.7773C32.5385 44.0793 34.1357 45.8673 36.6808 45.8673C39.2383 45.8673 40.8386 44.0793 40.8386 41.7773Z" fill="#0D1A3E"/>
<path d="M45.2917 42.9467V35.7638H47.526V42.9467C47.526 44.9748 48.8309 45.8673 50.7236 45.8673C52.5978 45.8673 53.8872 44.9748 53.8872 42.9467V35.7638H56.1215V42.9467C56.1215 46.452 53.6811 48 50.7082 48C47.7322 48 45.2917 46.452 45.2917 42.9467Z" fill="#0D1A3E"/>
<path d="M69.6103 39.7492C69.6103 42.0512 67.8222 43.753 65.5387 43.753H61.1902V47.7907H58.9559V35.7607H61.1902H65.5387C67.8222 35.7638 69.6103 37.4657 69.6103 39.7492ZM67.376 39.7677C67.376 38.632 66.4835 37.8073 65.3325 37.8073H61.1902V41.7096H65.3325C66.4804 41.7096 67.376 40.9002 67.376 39.7677Z" fill="#0D1A3E"/>
<path d="M57.1002 7.83229C57.7465 7.9123 58.3866 8.00155 59.0206 8.10619C62.6213 8.73092 66.1481 9.70957 69.4965 10.956V0.667831H62.4644L57.1002 7.83229ZM36.1085 0.667831V9.38643C40.057 8.36777 44.1593 7.72457 48.2585 7.53069L43.1006 0.667831H36.1085ZM101.463 11.353C101.463 4.98866 96.6525 0.670909 90.1958 0.670909H73.4111V12.5686C77.3257 14.3443 80.9018 16.474 83.9331 18.8036C85.3026 19.8561 86.5705 20.9333 87.7461 22.0381L88.1093 22.3797C91.2083 25.3557 93.6088 28.4978 95.3538 31.8308H103.238V31.4338L95.9385 20.7486C99.2776 19.0098 101.463 15.6707 101.463 11.353ZM89.0879 15.006H81.8742V8.05695H89.0879C91.4453 8.05695 93.0056 9.39567 93.0056 11.5315C93.0025 13.6673 91.4453 15.006 89.0879 15.006ZM101.284 2.56974H101.352C101.432 2.56974 101.576 2.86825 101.857 3.34527H102.309C102.054 2.89287 101.807 2.48357 101.718 2.46818V2.45895C101.884 2.40047 102.143 2.25583 102.143 1.93885C102.143 1.64033 101.918 1.41567 101.49 1.41567H100.899V3.34527H101.287V2.56974H101.284ZM101.284 1.7265H101.386C101.613 1.7265 101.727 1.7942 101.727 1.97578C101.727 2.17274 101.567 2.26198 101.37 2.26198H101.281V1.7265H101.284ZM101.518 4.13311C102.491 4.13311 103.241 3.38836 103.241 2.40047C103.241 1.41567 102.503 0.667831 101.524 0.667831C100.515 0.667831 99.8223 1.41259 99.8223 2.40047C99.8223 3.38836 100.512 4.13311 101.518 4.13311ZM101.518 1.03406C102.263 1.03406 102.798 1.63109 102.798 2.3974C102.798 3.1637 102.266 3.76381 101.518 3.76381C100.773 3.76381 100.232 3.1637 100.232 2.3974C100.232 1.63417 100.773 1.03406 101.518 1.03406Z" fill="url(#paint0_linear)"/>
<defs>
<linearGradient id="paint0_linear" x1="48.7193" y1="-4.16741" x2="144.39" y2="39.1786" gradientUnits="userSpaceOnUse">
<stop stop-color="#1059A9"/>
<stop offset="0.4959" stop-color="#1C2D5A"/>
<stop offset="1" stop-color="#0C1F40"/>
</linearGradient>
</defs>
</svg>
