<?xml version="1.0" standalone="no"?>
<!DOCTYPE svg PUBLIC "-//W3C//DTD SVG 20010904//EN"
 "http://www.w3.org/TR/2001/REC-SVG-20010904/DTD/svg10.dtd">
<svg version="1.0" xmlns="http://www.w3.org/2000/svg"
 width="700.000000pt" height="700.000000pt" viewBox="0 0 700.000000 700.000000"
 preserveAspectRatio="xMidYMid meet">
<metadata>
Created by potrace 1.11, written by Peter Selinger 2001-2013
</metadata>
<g transform="translate(0.000000,700.000000) scale(0.100000,-0.100000)"
fill="#000000" stroke="none">
<path d="M3288 5816 c-1 -2 -32 -6 -68 -10 -227 -22 -365 -50 -565 -115 -856
-275 -1452 -1019 -1542 -1929 -10 -98 -10 -413 -1 -518 40 -430 221 -882 487
-1214 118 -148 327 -339 481 -441 125 -83 160 -103 265 -154 216 -104 498
-193 695 -219 25 -3 59 -9 75 -12 85 -16 234 -22 445 -18 129 2 244 5 255 7
11 2 49 8 85 12 36 5 67 9 70 10 3 1 25 5 50 9 70 13 69 13 176 40 170 43 310
96 481 180 513 252 918 724 1102 1286 17 52 33 105 36 118 2 13 7 32 10 42 6
20 8 29 30 130 12 58 14 67 34 235 13 109 11 340 -4 450 -35 262 -104 572
-155 701 -90 225 -206 418 -374 622 -27 33 -190 197 -236 237 -52 45 -144 113
-235 173 -76 50 -310 172 -385 201 -110 42 -299 99 -385 117 -252 51 -357 61
-622 62 -110 0 -203 -1 -205 -2z m478 -1146 c149 -29 262 -73 402 -155 90 -52
237 -197 300 -295 102 -159 172 -357 197 -560 7 -52 8 -285 1 -315 -2 -11 -7
-42 -10 -70 -41 -310 -220 -604 -466 -767 -212 -140 -432 -199 -720 -193 -230
5 -413 51 -584 148 -312 176 -501 477 -551 877 -8 63 -9 280 -1 319 3 14 8 44
11 66 18 131 56 249 122 380 166 329 502 549 888 582 39 3 71 7 73 8 11 9 255
-8 338 -25z"/>
</g>
</svg>
